<?xml version="1.0" encoding="utf-8"?>
<!-- Generator: Adobe Illustrator 21.1.0, SVG Export Plug-In . SVG Version: 6.00 Build 0)  -->
<svg version="1.1" id="Layer_1" xmlns="http://www.w3.org/2000/svg" xmlns:xlink="http://www.w3.org/1999/xlink" x="0px" y="0px"
	 viewBox="0 0 62.4 62.4" style="enable-background:new 0 0 62.4 62.4;" xml:space="preserve">
<style type="text/css">
	.st0{fill:#52B68B;}
	.st1{fill:#A8DAC5;}
</style>
<g>
	<g>
		<path class="st0" d="M31.2,59.5c-15.6,0-28.3-12.7-28.3-28.3c0-15.6,12.7-28.3,28.3-28.3c15.6,0,28.3,12.7,28.3,28.3
			C59.5,46.8,46.8,59.5,31.2,59.5z M31.2,3.6C16,3.6,3.6,16,3.6,31.2c0,15.2,12.4,27.6,27.6,27.6c15.2,0,27.6-12.4,27.6-27.6
			C58.8,16,46.4,3.6,31.2,3.6z"/>
	</g>
	<g>
		<path class="st1" d="M17.9,37.9c0,0.7-0.6,1.4-1.4,1.4c-0.7,0-1.4-0.6-1.4-1.4c0-0.7,0.6-1.4,1.4-1.4C17.3,36.5,17.9,37,17.9,37.9
			z"/>
		<path class="st1" d="M47.1,42.1c-0.7,0-1.4,0.6-1.4,1.4s0.6,1.4,1.4,1.4c0.7,0,1.4-0.6,1.4-1.4S47.9,42.1,47.1,42.1z"/>
		<path class="st0" d="M15.2,43.8c-0.7,0-1.4,0.6-1.4,1.4c0,0.7,0.6,1.4,1.4,1.4c0.7,0,1.4-0.6,1.4-1.4
			C16.5,44.4,15.9,43.8,15.2,43.8z"/>
		<path class="st0" d="M38.9,41.1c-0.7,0-1.4,0.6-1.4,1.4s0.6,1.4,1.4,1.4c0.7,0,1.4-0.6,1.4-1.4S39.6,41.1,38.9,41.1z"/>
		<path class="st1" d="M27.8,41.5c-0.7,0-1.4,0.6-1.4,1.4c0,0.7,0.6,1.4,1.4,1.4c0.7,0,1.4-0.6,1.4-1.4
			C29.2,42.2,28.7,41.5,27.8,41.5z"/>
		<path class="st1" d="M35.2,53.6c-0.7,0-1.4,0.6-1.4,1.4c0,0.7,0.6,1.4,1.4,1.4c0.7,0,1.5-0.5,1.5-1.3S36,53.6,35.2,53.6z"/>
		<path class="st0" d="M20.4,41.8c-0.7,0-1.4,0.6-1.4,1.4s0.6,1.4,1.4,1.4s1.4-0.6,1.4-1.4S21.2,41.8,20.4,41.8z"/>
		<path class="st0" d="M25.7,36c-0.7,0-1.4,0.6-1.4,1.4c0,0.7,0.6,1.4,1.4,1.4c0.7,0,1.4-0.6,1.4-1.4C27.1,36.6,26.4,36,25.7,36z"/>
		<path class="st0" d="M29.3,49.5c-0.7,0-1.4,0.6-1.4,1.4c0,0.7,0.6,1.5,1.4,1.5s1.4-0.6,1.4-1.4C30.7,50.2,30.1,49.5,29.3,49.5z"/>
		<path class="st1" d="M19.3,50.6c-0.7,0-1.4,0.6-1.4,1.4s0.6,1.4,1.4,1.4c0.7,0,1.4-0.6,1.4-1.4S20,50.6,19.3,50.6z"/>
		<path class="st0" d="M42,50.2c-0.7,0-1.4,0.6-1.4,1.4c0,0.7,0.6,1.4,1.4,1.4c0.7,0,1.4-0.6,1.4-1.4C43.4,50.8,42.8,50.2,42,50.2z"
			/>
		<path class="st0" d="M33.7,45.5c-0.7,0-1.4,0.6-1.4,1.4c0,0.7,0.6,1.4,1.4,1.4s1.4-0.6,1.4-1.4C35.1,46.1,34.4,45.5,33.7,45.5z"/>
		<path class="st0" d="M42.6,29.7c-3,0-6.4-0.4-10.1-1.4c-0.4-0.1-0.8-0.2-1.4-0.4c-4.5-1.3-15-4.3-24.6-1.3c-0.2,0.1-0.4,0-0.4-0.2
			C6,26.2,6.1,26,6.3,26c9.8-3.2,20.4-0.1,25,1.3c0.5,0.1,0.9,0.3,1.4,0.4c14,3.7,23.1-1.5,23.2-1.6c0.2-0.1,0.4,0,0.4,0.1
			c0.1,0.2,0,0.4-0.1,0.4C56.2,26.6,51,29.7,42.6,29.7z"/>
		<g>
			<path class="st0" d="M10.9,28.9c-0.3,0-0.5,0.3-0.5,0.6c0,0.1,0.1,0.2,0.2,0.3l1.1-1C11.4,28.9,11.2,28.9,10.9,28.9z"/>
			<path class="st0" d="M12.3,28.8L11,30.1c0,0,0.1,0,0.1,0c0.4-0.1,0.7-0.1,1.1-0.1l1.3-1.3C13,28.7,12.6,28.7,12.3,28.8z"/>
			<path class="st0" d="M14.1,28.6l-1.2,1.2c0.4,0,0.7-0.1,1.1-0.1l1.2-1.2C14.8,28.6,14.4,28.6,14.1,28.6z"/>
			<path class="st0" d="M15.7,28.6l-1.2,1.2c0.3,0,0.7,0,1,0l1.1-1.1C16.4,28.6,16,28.6,15.7,28.6z"/>
			<path class="st0" d="M17.2,28.6l-1.1,1.1c0.3,0,0.7,0,1,0l1.1-1.1C17.9,28.7,17.6,28.6,17.2,28.6z"/>
			<path class="st0" d="M18.7,28.7l-1.1,1.1c0.3,0,0.7,0,1,0.1l1.1-1.1C19.4,28.8,19.1,28.7,18.7,28.7z"/>
			<path class="st0" d="M20.3,28.9l-1.1,1.1c0.3,0,0.6,0.1,0.9,0.1l1-1C20.9,28.9,20.6,28.9,20.3,28.9z"/>
			<path class="st0" d="M21.7,29l-1,1c0.3,0,0.6,0.1,0.9,0.1l1-1C22.3,29.1,22,29.1,21.7,29z"/>
			<path class="st0" d="M23.1,29.3l-1,1c0.3,0,0.6,0.1,0.9,0.1l1-1C23.7,29.4,23.4,29.3,23.1,29.3z"/>
			<path class="st0" d="M24.4,29.5l-1,1c0.3,0.1,0.6,0.1,0.9,0.2l1-1C25,29.6,24.7,29.5,24.4,29.5z"/>
			<path class="st0" d="M25.8,29.8l-1,1c0.3,0.1,0.6,0.1,0.8,0.2l1-1C26.3,29.9,26.1,29.8,25.8,29.8z"/>
			<path class="st0" d="M27.1,30.1l-1,1c0.3,0.1,0.5,0.1,0.8,0.2l1-0.9C27.6,30.2,27.3,30.1,27.1,30.1z"/>
			<path class="st0" d="M28.3,30.4l-0.9,0.9c0.3,0.1,0.5,0.1,0.8,0.2l0.9-0.9C28.9,30.5,28.6,30.5,28.3,30.4z"/>
			<path class="st0" d="M29.6,30.7l-0.9,0.9c0.3,0.1,0.6,0.2,0.8,0.2l0.9-0.9C30.1,30.9,29.9,30.8,29.6,30.7z"/>
			<path class="st0" d="M31.4,31.2c-0.2,0-0.3-0.1-0.5-0.1L30,32c0.3,0.1,0.5,0.1,0.8,0.2l0.9-0.9C31.6,31.3,31.5,31.3,31.4,31.2z"
				/>
			<path class="st0" d="M32.8,31.7c-0.2-0.1-0.4-0.1-0.6-0.2l-0.9,0.9c0.3,0.1,0.5,0.2,0.8,0.2l0.9-0.9
				C32.8,31.7,32.8,31.7,32.8,31.7z"/>
			<path class="st0" d="M33.4,31.8l-0.9,0.9c0.3,0.1,0.6,0.1,0.9,0.2l0.9-0.9C33.9,31.9,33.6,31.9,33.4,31.8z"/>
			<path class="st0" d="M34.7,32.1L33.8,33c0.3,0.1,0.5,0.1,0.8,0.2l0.9-0.9C35.3,32.2,35,32.2,34.7,32.1z"/>
			<path class="st0" d="M36,32.4l-0.9,0.9c0.3,0.1,0.6,0.1,0.8,0.1l0.9-0.9C36.6,32.5,36.3,32.4,36,32.4z"/>
			<path class="st0" d="M37.4,32.6l-0.9,0.9c0.3,0,0.6,0.1,0.8,0.1l1-1C38,32.7,37.7,32.6,37.4,32.6z"/>
			<path class="st0" d="M38.8,32.8l-1,1c0.3,0,0.6,0.1,1,0.1l1-1C39.5,32.8,39.1,32.8,38.8,32.8z"/>
			<path class="st0" d="M40.4,32.9l-1,1c0.3,0,0.6,0.1,0.9,0.1l1.1-1.1C41,32.9,40.7,32.9,40.4,32.9z"/>
			<path class="st0" d="M41.9,33L40.8,34c0.3,0,0.6,0,0.9,0l1.1-1.1C42.5,33,42.2,33,41.9,33z"/>
			<path class="st0" d="M43.5,33l-1.1,1.1c0.1,0,0.1,0,0.2,0c0.3,0,0.5,0,0.8,0l1.1-1.1C44.2,32.9,43.8,33,43.5,33z"/>
			<path class="st0" d="M45.1,32.9L44,34c0.4,0,0.8,0,1.1-0.1l1.2-1.2C45.9,32.8,45.5,32.8,45.1,32.9z"/>
			<path class="st0" d="M47,32.7l-1.2,1.2c0.4,0,0.8-0.1,1.1-0.1l1.3-1.3C47.8,32.6,47.4,32.6,47,32.7z"/>
			<path class="st0" d="M48.9,32.4l-1.3,1.3c0.4-0.1,0.8-0.1,1.2-0.2l1.4-1.4C49.8,32.2,49.3,32.3,48.9,32.4z"/>
			<path class="st0" d="M52.5,31.4c-0.4,0.1-0.9,0.3-1.4,0.4l-1.5,1.4c0.4-0.1,0.9-0.2,1.3-0.3L52.5,31.4
				C52.5,31.4,52.5,31.4,52.5,31.4z"/>
			<path class="st0" d="M53.2,31.8c0-0.1-0.1-0.2-0.3-0.3l-1.3,1.3c0.4-0.1,0.9-0.2,1.3-0.3C53.1,32.4,53.3,32.1,53.2,31.8z"/>
		</g>
		<g>
			<path class="st0" d="M48.9,37.9l-0.2,0.2C48.8,38.1,48.9,38,48.9,37.9z"/>
			<path class="st0" d="M15.9,33.2c-0.3,0-0.5,0.2-0.5,0.5c0,0.2,0.1,0.3,0.1,0.4l0.9-0.9C16.2,33.2,16.1,33.2,15.9,33.2z"/>
			<path class="st0" d="M17.4,33.3l-1,1c0.3,0,0.7,0,1,0l1-1C18.1,33.3,17.8,33.3,17.4,33.3z"/>
			<path class="st0" d="M19.4,33.4l-1,1c0.3,0,0.7,0,1,0.1l1-1C20.1,33.5,19.8,33.4,19.4,33.4z"/>
			<path class="st0" d="M21.2,33.6l-1,1c0.3,0,0.6,0.1,0.9,0.1l0.9-0.9C21.9,33.7,21.5,33.6,21.2,33.6z"/>
			<path class="st0" d="M23.1,33.9l-0.9,0.9c0.3,0,0.6,0.1,0.9,0.1L24,34C23.7,34,23.4,33.9,23.1,33.9z"/>
			<path class="st0" d="M24.8,34.2l-0.9,0.9c0.3,0.1,0.6,0.1,0.9,0.2l0.9-0.9C25.4,34.3,25.1,34.2,24.8,34.2z"/>
			<path class="st0" d="M26.5,34.5l-0.9,0.9c0.3,0.1,0.6,0.1,0.9,0.2l0.9-0.9C27.1,34.7,26.8,34.6,26.5,34.5z"/>
			<path class="st0" d="M28.2,35l-0.9,0.9c0.3,0.1,0.6,0.1,0.8,0.2l0.8-0.8C28.8,35.1,28.5,35,28.2,35z"/>
			<path class="st0" d="M29.8,35.4l-0.8,0.8c0.3,0.1,0.6,0.2,0.8,0.2l0.8-0.8C30.3,35.6,30,35.5,29.8,35.4z"/>
			<path class="st0" d="M31.4,35.9l-0.8,0.8c0.2,0,0.3,0.1,0.5,0.1c0.1,0,0.2,0.1,0.3,0.1l0.8-0.8C31.9,36,31.7,35.9,31.4,35.9z"/>
			<path class="st0" d="M32.9,36.3l-0.8,0.8c0.1,0,0.2,0.1,0.3,0.1c0.2,0,0.3,0.1,0.5,0.1l0.8-0.8C33.5,36.5,33.2,36.4,32.9,36.3z"
				/>
			<path class="st0" d="M34.6,36.7l-0.8,0.8c0.3,0.1,0.6,0.1,0.8,0.2l0.8-0.8C35.2,36.9,34.9,36.8,34.6,36.7z"/>
			<path class="st0" d="M36.4,37.1l-0.9,0.9c0.3,0.1,0.6,0.1,0.9,0.2l0.9-0.9C37,37.2,36.7,37.1,36.4,37.1z"/>
			<path class="st0" d="M38.1,37.3l-0.9,0.9c0.3,0,0.6,0.1,0.9,0.1l0.9-0.9C38.8,37.4,38.4,37.4,38.1,37.3z"/>
			<path class="st0" d="M40.1,37.5l-0.9,0.9c0.3,0,0.6,0.1,1,0.1l0.9-0.9C40.7,37.6,40.4,37.6,40.1,37.5z"/>
			<path class="st0" d="M42,37.6L41,38.6c0.3,0,0.7,0,1,0l1-1C42.7,37.6,42.3,37.6,42,37.6z"/>
			<path class="st0" d="M44.1,37.6l-1,1c0.4,0,0.7,0,1.1,0l1.1-1.1C44.9,37.5,44.5,37.6,44.1,37.6z"/>
			<path class="st0" d="M46.4,37.4l-1.1,1.1c0.4,0,0.8-0.1,1.2-0.1l1.2-1.2C47.2,37.3,46.8,37.4,46.4,37.4z"/>
			<path class="st0" d="M49,37.6c0-0.2-0.2-0.3-0.4-0.4l-1.1,1.1c0.4,0,0.7-0.1,1.1-0.1c0.1,0,0.1,0,0.1,0l0.2-0.2
				C49,37.8,49,37.7,49,37.6z"/>
		</g>
	</g>
</g>
</svg>
