<?xml version="1.0" encoding="utf-8"?>
<!-- Generator: Adobe Illustrator 21.1.0, SVG Export Plug-In . SVG Version: 6.00 Build 0)  -->
<svg version="1.1" id="Layer_1" xmlns="http://www.w3.org/2000/svg" xmlns:xlink="http://www.w3.org/1999/xlink" x="0px" y="0px"
	 viewBox="0 0 62.4 62.4" style="enable-background:new 0 0 62.4 62.4;" xml:space="preserve">
<style type="text/css">
	.st0{fill:#52B68B;}
</style>
<g>
	<path class="st0" d="M31.2,59.5c-15.6,0-28.3-12.7-28.3-28.3c0-15.6,12.7-28.3,28.3-28.3c15.6,0,28.3,12.7,28.3,28.3
		C59.5,46.8,46.8,59.5,31.2,59.5z M31.2,3.6C16,3.6,3.6,16,3.6,31.2c0,15.2,12.4,27.6,27.6,27.6c15.2,0,27.6-12.4,27.6-27.6
		C58.8,16,46.4,3.6,31.2,3.6z"/>
	<g>
		<g>
			<path class="st0" d="M26,41.7c0.2-0.2,0.2-0.4,0-0.6c-0.2-0.2-0.4-0.2-0.6,0l-3.1,3.1v-2c0,0,0,0,0,0v-3.4c0-0.2-0.2-0.4-0.4-0.4
				c-0.2,0-0.4,0.2-0.4,0.4v2.5l-3-3c-0.2-0.2-0.4-0.2-0.6,0c-0.2,0.2-0.2,0.4,0,0.6l3.5,3.5v9.2c0,0.2,0.2,0.4,0.4,0.4
				c0.2,0,0.4-0.2,0.4-0.4v-6.3c0,0,0,0,0.1,0L26,41.7z"/>
			<path class="st0" d="M44.5,23.5c0.6-1.2,0.9-2.6,0.9-4c0-5.1-4.1-9.2-9.2-9.2c-5.1,0-9.2,4.1-9.2,9.2c0,1.4,0.3,2.7,0.9,4
				c-0.9,0.8-1.7,1.7-2.3,2.8c-1.1-0.9-2.4-1.4-3.8-1.4c-3.3,0-6,2.7-6,6c0,0.9,0.2,1.7,0.6,2.5c-1.7,1.5-2.6,3.7-2.6,6
				c0,3.9,2.8,7.2,6.5,8c0,0,0.1,0,0.1,0c0.2,0,0.3-0.1,0.4-0.3c0-0.2-0.1-0.4-0.3-0.5c-3.4-0.7-5.9-3.7-5.9-7.2
				c0-2.1,0.9-4.2,2.6-5.6c0.1-0.1,0.2-0.3,0.1-0.5c-0.4-0.8-0.6-1.6-0.6-2.4c0-2.9,2.4-5.3,5.3-5.3c1.3,0,2.5,0.5,3.4,1.3
				c-0.9,1.8-1.4,3.7-1.4,5.8c0,3.9,1.8,7.4,4.7,9.7c-1,2.2-2.9,3.8-5.3,4.2c-0.2,0-0.3,0.2-0.3,0.5c0,0.2,0.2,0.3,0.4,0.3
				c0,0,0,0,0.1,0c2.5-0.5,4.7-2.2,5.8-4.5c1.4,0.9,2.9,1.6,4.6,2c0.2,0,0.4-0.1,0.5-0.3c0-0.2-0.1-0.4-0.3-0.5
				c-5.4-1.1-9.4-5.8-9.4-11.4c0-3.4,1.5-6.6,4.1-8.8c0.1-0.1,0.2-0.3,0.1-0.5c-0.6-1.2-1-2.5-1-3.9c0-4.6,3.8-8.4,8.4-8.4
				c4.6,0,8.4,3.8,8.4,8.4c0,1.4-0.3,2.7-1,3.9c-0.1,0.2,0,0.4,0.1,0.5c2.6,2.2,4.1,5.4,4.1,8.8c0,5.5-3.9,10.3-9.4,11.4
				c-0.2,0-0.3,0.2-0.3,0.5c0,0.2,0.2,0.3,0.4,0.3c0,0,0,0,0.1,0c5.8-1.1,10-6.2,10-12.1C48.6,29.2,47.1,25.8,44.5,23.5z"/>
			<path class="st0" d="M36.6,41.5v-3l5.5-5.5c0.2-0.2,0.2-0.4,0-0.6c-0.2-0.2-0.4-0.2-0.6,0l-5,5v-1.5c0,0,0,0,0,0v-9
				c0-0.2-0.2-0.4-0.4-0.4c-0.2,0-0.4,0.2-0.4,0.4v8l-5-5c-0.2-0.2-0.4-0.2-0.6,0c-0.2,0.2-0.2,0.4,0,0.6l5.5,5.5v2.3c0,0,0,0,0,0
				v2.2l-5-5c-0.2-0.2-0.4-0.2-0.6,0c-0.2,0.2-0.2,0.4,0,0.6l5.5,5.5v9.9c0,0.2,0.2,0.4,0.4,0.4c0.2,0,0.4-0.2,0.4-0.4V41.5
				C36.6,41.5,36.6,41.5,36.6,41.5z"/>
		</g>
	</g>
</g>
</svg>
