<?xml version="1.0" encoding="UTF-8"?>
<svg id="Layer_1" data-name="Layer 1" xmlns="http://www.w3.org/2000/svg" viewBox="0 0 62.4 62.4">
  <defs>
    <style>
      .cls-1 {
        fill: #43b183;
      }

      .cls-1, .cls-2, .cls-3 {
        stroke-width: 0px;
      }

      .cls-2 {
        fill: #52b68a;
      }

      .cls-3 {
        fill: #52b68b;
      }
    </style>
  </defs>
  <path class="cls-3" d="M31.2,59.5c-15.6,0-28.3-12.7-28.3-28.3S15.6,2.9,31.2,2.9s28.3,12.7,28.3,28.3-12.7,28.3-28.3,28.3ZM31.2,3.6C16,3.6,3.6,16,3.6,31.2s12.4,27.6,27.6,27.6,27.6-12.4,27.6-27.6c0-15.2-12.4-27.6-27.6-27.6Z"/>
  <path class="cls-1" d="M31.2,51.68l-.9-.4c-11.4-5.09-16.12-7.2-16.12-31.37v-.24l.23-.08c4.35-1.61,16.52-7.38,16.64-7.43l.15-.07.15.07c.12.06,12.29,5.82,16.64,7.43l.23.08v.24c0,24.17-4.72,26.28-16.12,31.37l-.9.41ZM14.88,20.15c.03,23.49,4.31,25.4,15.7,30.49l.62.28.62-.28c11.39-5.09,15.67-7,15.7-30.49-4.28-1.62-14.93-6.64-16.32-7.3-1.39.66-12.04,5.68-16.32,7.3Z"/>
  <path class="cls-2" d="M31.2,14.75s-10.81,5.13-14.71,6.57c0,21.59,4.19,22.98,14.71,27.69,10.52-4.71,14.71-6.1,14.71-27.69-3.9-1.44-14.71-6.57-14.71-6.57ZM28.98,40.84l-8.11-7.03,1.96-2.27,5.91,5.12,11.58-12.62,2.22,2.02-13.56,14.78Z"/>
</svg>