<?xml version="1.0" encoding="utf-8"?>
<!-- Generator: Adobe Illustrator 21.1.0, SVG Export Plug-In . SVG Version: 6.00 Build 0)  -->
<svg version="1.1" id="Layer_1" xmlns="http://www.w3.org/2000/svg" xmlns:xlink="http://www.w3.org/1999/xlink" x="0px" y="0px"
	 viewBox="0 0 62.4 62.4" style="enable-background:new 0 0 62.4 62.4;" xml:space="preserve">
<style type="text/css">
	.st0{fill:#52B68B;}
</style>
<g>
	<path class="st0" d="M31.2,59.5c-15.6,0-28.3-12.7-28.3-28.3c0-15.6,12.7-28.3,28.3-28.3c15.6,0,28.3,12.7,28.3,28.3
		C59.5,46.8,46.8,59.5,31.2,59.5z M31.2,3.6C16,3.6,3.6,16,3.6,31.2c0,15.2,12.4,27.6,27.6,27.6c15.2,0,27.6-12.4,27.6-27.6
		C58.8,16,46.4,3.6,31.2,3.6z"/>
</g>
<g>
	<path class="st0" d="M52.2,42.4c0-0.1-0.1-0.2-0.2-0.2c-2.5-0.8-7-6.2-10-13.7c-1.9-4.7-4.4-13.2-1.7-21.2
		c-0.2-0.1-0.5-0.2-0.7-0.3c-2.7,8.2-0.2,16.9,1.7,21.7c2.7,6.7,6.9,12.5,10,13.9c-2.2,4-9,6.7-12.1,5.6c-1.3-0.5-1.7-1.6-1.2-3.2
		c0.2-0.6,0.4-1.3,0.6-2c1.7-5.3,2.9-9.4,1.3-10.7c0,0,0,0-0.1,0c-2-1.6-5.2-4.1-8.7-6.8c-4-3-8.1-6.1-10.9-8.5
		c-2-1.7-3.9-3.7-5.4-5.5c-0.2,0.2-0.4,0.3-0.6,0.5c1.5,1.8,3.4,3.8,5.5,5.5c2.9,2.4,7,5.5,11,8.5c2.9,2.2,5.7,4.3,7.7,5.9
		c-0.6,0.1-1.3,0.4-2.1,0.9c-3.2,1.9-5.5,4.4-7.5,6.6c-2.6,2.8-4.6,5.1-7.3,4.4c-0.5-0.1-0.8-0.4-1.1-0.7c0-0.1-0.1-0.1-0.1-0.2
		c-0.8-1.1-0.7-3.2-0.6-5.3c0.1-2.4,0.2-4.8-1-6c-0.6-0.6-1.5-0.9-2.7-0.8c-3.3,0.2-5.4,2.9-7.4,5.4c-0.6,0.7-1.1,1.4-1.7,2.1
		c0.1,0.3,0.2,0.6,0.3,0.8c0.7-0.8,1.4-1.6,2-2.4c1-1.2,1.9-2.4,3-3.3c2.9,1.3,4.5,4.4,5.8,6.9c0.6,1.1,1.1,2.1,1.6,2.9
		c0.4,0.6,0.9,1,1.7,1.2c3.1,0.9,5.3-1.5,8-4.6c0.3-0.3,0.6-0.7,1-1.1c2.3,1.7,4.1,4.4,5.7,6.7c0.6,0.8,1.1,1.6,1.6,2.2c0,0,0,0,0,0
		c0.4,0.6,1,0.9,1.4,1.1c0.6,0.2,1.3,0.3,2,0.3c3.9,0,9.4-2.8,11.3-6.6C52.3,42.6,52.3,42.5,52.2,42.4z M18.9,37.9c0,1-0.1,2,0,2.9
		c-0.1-0.2-0.2-0.3-0.2-0.5c-1.3-2.5-2.9-5.6-5.8-7.1c1-0.7,2-1.2,3.2-1.3c0.9-0.1,1.6,0.1,2.1,0.6C19.1,33.4,19,35.7,18.9,37.9z
		 M37.2,44.9C37.1,45.3,37,45.7,37,46c-0.2-0.2-0.3-0.4-0.5-0.7c-1.5-2.3-3.4-5-5.8-6.8c1.6-1.7,3.5-3.5,5.8-4.9
		c1.4-0.8,2.3-1,2.8-0.7c0,0,0,0,0,0c0,0,0,0,0,0c1.2,1-0.5,6.3-1.6,9.8C37.6,43.6,37.4,44.3,37.2,44.9z"/>
</g>
</svg>
