<?xml version="1.0" encoding="utf-8"?>
<!-- Generator: Adobe Illustrator 21.1.0, SVG Export Plug-In . SVG Version: 6.00 Build 0)  -->
<svg version="1.1" id="Layer_1" xmlns="http://www.w3.org/2000/svg" xmlns:xlink="http://www.w3.org/1999/xlink" x="0px" y="0px"
	 viewBox="0 0 62.4 62.4" style="enable-background:new 0 0 62.4 62.4;" xml:space="preserve">
<style type="text/css">
	.st0{fill:#52B68B;}
	.st1{fill:#A8DAC5;}
</style>
<g>
	<g>
		<path class="st0" d="M31.2,59.5c-15.6,0-28.3-12.7-28.3-28.3c0-15.6,12.7-28.3,28.3-28.3c15.6,0,28.3,12.7,28.3,28.3
			C59.5,46.8,46.8,59.5,31.2,59.5z M31.2,3.6C16,3.6,3.6,16,3.6,31.2c0,15.2,12.4,27.6,27.6,27.6c15.2,0,27.6-12.4,27.6-27.6
			C58.8,16,46.4,3.6,31.2,3.6z"/>
	</g>
	<g>
		<path class="st0" d="M50.9,25.5l-6.5,0.8l1.9,1.4c-6.6,3.1-11.7,2-16.6,1c-5.2-1.1-10.2-2.2-16.3,2c-0.2,0.1-0.2,0.4-0.1,0.5
			c0.1,0.1,0.2,0.2,0.3,0.2c0.1,0,0.2,0,0.2-0.1c5.8-4,10.6-3,15.7-1.9c5.1,1.1,10.3,2.2,17.2-1.1l0.3,2.3L50.9,25.5z"/>
		<path class="st0" d="M51.2,32.1c-0.1-0.2-0.4-0.2-0.5-0.1c-7.4,5-13.4,3.9-19.2,2.9c-4.3-0.7-8.7-1.5-13.5,0.2l-0.2-2.4l-4.2,5.1
			l6.6-0.6l-1.8-1.5c4.5-1.6,8.6-0.9,13-0.2c2.5,0.4,5,0.9,7.6,0.9c3.7,0,7.7-0.9,12.2-3.9C51.2,32.5,51.3,32.3,51.2,32.1z"/>
		<path class="st1" d="M40.3,40.6c0.1-1.2,0.1-2.4,0-3.6c0-0.2-0.2-0.4-0.4-0.4c-0.2,0-0.4,0.2-0.4,0.4c0.1,1.1,0.1,2.3,0,3.5
			c-0.2,0.1-0.3,0.3-0.5,0.4c0-1.3,0-2.5-0.2-3.9c0-0.2-0.2-0.4-0.4-0.3c-0.2,0-0.4,0.2-0.3,0.4c0,0,0,0,0,0
			c-0.4,0.1-0.8,0.2-1.2,0.3c0-0.2-0.1-0.4-0.1-0.6c0-0.2-0.2-0.3-0.5-0.3c-0.2,0-0.3,0.2-0.3,0.5c0,0.2,0.1,0.4,0.1,0.5
			c-0.4,0.1-0.8,0.1-1.2,0.2c-0.1-0.4-0.2-0.8-0.3-1.2c-0.1-0.2-0.3-0.3-0.5-0.3c-0.2,0.1-0.3,0.3-0.3,0.5c0.1,0.3,0.2,0.7,0.3,1.1
			c-0.6,0.1-1.3,0.1-2,0.1c-0.4-1.7-0.9-3.5-1.5-5.2c0.7,0.1,1.3,0.2,1.9,0.2c0.2,0.6,0.4,1.2,0.7,1.8c0.1,0.2,0.2,0.3,0.4,0.3
			c0,0,0.1,0,0.1,0c0.2-0.1,0.3-0.3,0.2-0.5c-0.2-0.5-0.4-1-0.5-1.5c0.6,0.1,1.1,0.1,1.6,0.1c0.2,0.6,0.4,1.3,0.5,1.9
			c0,0.2,0.2,0.3,0.4,0.3c0,0,0.1,0,0.1,0c0.2-0.1,0.3-0.3,0.3-0.5c-0.2-0.6-0.3-1.1-0.5-1.7c0.5,0,0.9,0,1.3-0.1
			c0.2,0.7,0.4,1.4,0.5,2.1c0,0.2,0.2,0.3,0.4,0.3c0,0,0.1,0,0.1,0c0.2,0,0.3-0.3,0.3-0.5c-0.1-0.7-0.3-1.3-0.5-2
			c0.3,0,0.7-0.1,1-0.1c0.1,0.7,0.3,1.5,0.4,2.2c0,0.2,0.2,0.3,0.4,0.3c0,0,0,0,0.1,0c0.2,0,0.4-0.2,0.3-0.4
			c-0.2-1.5-0.5-2.9-0.8-4.3L39,31l-0.4,0.2c0.1,0.4,0.2,0.7,0.2,1.1c-0.4,0.1-0.7,0.1-1.1,0.2c-0.1-0.5-0.3-1-0.4-1.5
			c-0.1-0.2-0.3-0.3-0.5-0.3c-0.2,0.1-0.3,0.3-0.3,0.5c0.1,0.5,0.3,0.9,0.4,1.3c-0.5,0-0.9,0-1.4,0c-0.2-0.5-0.3-1.1-0.5-1.7
			c-0.1-0.2-0.3-0.3-0.5-0.3c-0.2,0.1-0.3,0.3-0.3,0.5c0.2,0.5,0.3,1,0.5,1.4c-0.5,0-1.1-0.1-1.7-0.1c-0.1-0.3-0.2-0.5-0.3-0.8
			l-0.4-1.1c-0.1-0.2-0.3-0.3-0.5-0.2c-0.2,0.1-0.3,0.3-0.2,0.5l0.4,1.1c0,0.1,0.1,0.3,0.1,0.4c-0.6-0.1-1.2-0.2-1.9-0.3
			c-0.5-1.7-1.1-3.3-1.5-5c0.6,0.2,1.1,0.3,1.7,0.5c0.1,0.4,0.3,0.9,0.4,1.3c0.1,0.2,0.2,0.3,0.4,0.3c0,0,0.1,0,0.1,0
			c0.2-0.1,0.3-0.3,0.2-0.5c-0.1-0.3-0.2-0.6-0.3-0.8c0.7,0.1,1.3,0.2,1.9,0.3c0.1,0.4,0.3,0.9,0.4,1.3c0.1,0.2,0.2,0.3,0.4,0.3
			c0,0,0.1,0,0.1,0c0.2-0.1,0.3-0.3,0.3-0.5c-0.1-0.3-0.2-0.6-0.3-0.9c0.2,0,0.5,0.1,0.7,0.1c0.3,0,0.6,0.1,0.9,0.1
			c0.1,0.4,0.2,0.7,0.3,1.1c0,0.2,0.2,0.3,0.4,0.3c0,0,0.1,0,0.1,0c0.2-0.1,0.3-0.3,0.3-0.5c-0.1-0.2-0.1-0.5-0.2-0.7
			c0.5,0.1,1,0.2,1.5,0.3c0,0.2,0.1,0.4,0.1,0.6c0,0.2,0.2,0.3,0.5,0.3c0.2,0,0.3-0.2,0.3-0.5c-0.6-3.1-0.8-5.8,0.3-9
			c0-0.1,0-0.2,0-0.3c-0.1-0.1-0.2-0.2-0.3-0.2c-4.4-0.8-8.3-2.8-14.6-10.2c-0.1-0.1-0.2-0.2-0.4-0.1c-0.1,0-0.3,0.1-0.3,0.3
			c-2.6,7.8-1,15.7,0.6,23.5c1.4,7,2.7,13.5,0.9,19.5c0,0.1,0,0.3,0.1,0.4c0.1,0.1,0.2,0.1,0.3,0.1c0.1,0,0.1,0,0.2,0
			c3.4-1.5,5.9-2.6,8.1-3.9c0,0,0,0,0,0c0.8-0.4,1.6-0.9,2.4-1.3c0,0,0,0,0,0c1-0.6,1.9-1.2,3-1.9c0.1-0.1,0.1-0.1,0.2-0.2
			c0.5-1.7,0.8-3.3,0.9-4.9C40.3,40.7,40.4,40.6,40.3,40.6z M38.1,38c0.1,1.2,0.2,2.3,0.1,3.5c-0.3,0.2-0.6,0.4-1,0.6
			c0-1.2-0.1-2.5-0.3-3.8C37.4,38.1,37.8,38.1,38.1,38z M36.7,46.7c0.3-1.3,0.5-2.5,0.6-3.8c0.3-0.1,0.6-0.3,0.9-0.5
			c-0.1,1.2-0.3,2.5-0.7,3.7C37.2,46.3,36.9,46.5,36.7,46.7z M34.5,48c0.6-1.5,0.8-3,0.9-4.4c0.3-0.1,0.7-0.2,1-0.4
			c-0.1,1.3-0.3,2.7-0.7,4C35.3,47.5,34.9,47.7,34.5,48z M31.7,49.5c0.7-1.7,1-3.4,1.1-5.2c0.7-0.1,1.3-0.3,1.8-0.5
			c-0.1,1.5-0.5,3.1-1.2,4.7C32.9,48.8,32.3,49.1,31.7,49.5z M26.2,38.7c1,0.1,2,0.1,2.9,0.1c0.3,1.8,0.5,3.5,0.5,5.3
			c-0.5,0.1-1,0.2-1.5,0.3l-1.2,0.2C26.8,42.7,26.5,40.7,26.2,38.7z M32,43.7c-0.5,0.1-1.1,0.2-1.7,0.3c0-1.7-0.2-3.4-0.5-5.1
			c0.2,0,0.4,0,0.6,0c0.3,0,0.7,0,1,0C31.8,40.5,32.1,42.1,32,43.7z M32,44.5c-0.1,1.8-0.5,3.7-1.4,5.5c0,0,0,0,0,0
			c-0.5,0.2-1,0.5-1.6,0.8c0.9-2,1.3-3.9,1.4-5.9C30.9,44.7,31.5,44.6,32,44.5z M36.2,38.4c0.2,1.4,0.3,2.7,0.2,4
			c-0.3,0.1-0.7,0.3-1,0.4c0-1.5-0.2-2.9-0.4-4.2C35.4,38.5,35.8,38.5,36.2,38.4z M34.3,38.7c0.3,1.3,0.5,2.8,0.4,4.3
			c-0.6,0.2-1.2,0.3-1.9,0.5c0-1.6-0.2-3.1-0.5-4.7C33,38.8,33.6,38.8,34.3,38.7z M31.3,38.1c-0.5,0-1,0-1.6,0
			c-0.4-1.8-0.8-3.7-1.3-5.5c0,0,0,0,0.1,0c0.4,0.1,0.9,0.1,1.3,0.2C30.3,34.6,30.9,36.3,31.3,38.1z M29.5,31.9
			c-0.3,0-0.6-0.1-0.9-0.1c-0.1,0-0.3,0-0.4-0.1c0,0,0-0.1,0-0.1c-0.5-1.8-1-3.6-1.4-5.4c0.4,0.2,0.8,0.3,1.2,0.5
			C28.4,28.5,29,30.2,29.5,31.9z M23.6,24.5c0.8,0.5,1.6,0.9,2.3,1.3c0.4,1.9,0.9,3.9,1.4,5.8c-0.8-0.1-1.7-0.2-2.6-0.4
			C24.3,29,23.9,26.8,23.6,24.5z M25.1,19.1c0,1.9,0.2,3.8,0.6,5.7c-0.7-0.4-1.5-0.8-2.2-1.3c0,0,0,0,0,0c-0.2-2.1-0.4-4.1-0.3-6.2
			C23.9,18,24.5,18.6,25.1,19.1z M27.2,20.7c0,1.7,0.2,3.4,0.6,5.1c-0.4-0.2-0.8-0.3-1.2-0.5c-0.4-1.8-0.6-3.7-0.7-5.5
			C26.4,20.1,26.8,20.4,27.2,20.7z M30.2,16.4c-0.5,1.7-0.7,3.3-0.7,4.8c-0.5-0.3-1-0.6-1.5-0.9c0-1.7,0.3-3.4,0.8-5.1
			C29.2,15.7,29.7,16,30.2,16.4z M32.7,18.2c-0.3,1.5-0.4,2.9-0.3,4.3c-0.7-0.2-1.3-0.5-2-0.9c-0.1-1.5,0.1-3.1,0.6-4.7
			C31.4,17.4,32.1,17.8,32.7,18.2z M35.4,19.5c-0.3,1.3-0.4,2.6-0.4,3.8c-0.6-0.1-1.2-0.3-1.8-0.5c-0.1-1.4,0-2.8,0.2-4.2
			C34,18.9,34.7,19.2,35.4,19.5z M28.7,26.1c-0.4-1.6-0.6-3.2-0.7-4.9c0.5,0.3,1,0.6,1.5,0.9c0.1,1.5,0.4,3,0.8,4.5
			C29.8,26.5,29.2,26.3,28.7,26.1z M31.2,26.8c-0.4-1.4-0.7-2.8-0.9-4.3c0.7,0.3,1.4,0.6,2.1,0.8c0.1,1.3,0.4,2.6,0.7,3.8
			C32.5,27.1,31.8,26.9,31.2,26.8z M35,27.4c-0.3,0-0.7-0.1-1-0.1c-0.3-1.2-0.6-2.4-0.8-3.7c0.6,0.2,1.2,0.3,1.8,0.5
			c0.1,1.2,0.3,2.3,0.6,3.4C35.4,27.5,35.2,27.5,35,27.4z M36.4,27.6c-0.3-1.1-0.5-2.2-0.6-3.4c0.7,0.1,1.3,0.2,1.9,0.3
			c0,1.1,0.1,2.2,0.3,3.3C37.5,27.8,36.9,27.7,36.4,27.6z M37.8,23.8c-0.7-0.1-1.3-0.2-2-0.4c0-1.2,0.1-2.4,0.3-3.7
			c0.7,0.3,1.5,0.5,2.3,0.6C38,21.6,37.8,22.7,37.8,23.8z M28.2,14.7c-0.6,1.7-0.9,3.4-0.9,5.1c-0.4-0.3-0.9-0.7-1.3-1
			c0-1.9,0.2-3.7,0.8-5.6C27.2,13.7,27.7,14.2,28.2,14.7z M24.3,10.5c0.6,0.7,1.2,1.4,1.8,2c-0.6,1.9-0.9,3.7-0.9,5.6
			c-0.6-0.5-1.2-1.1-1.9-1.8C23.4,14.4,23.7,12.4,24.3,10.5z M24.9,32c0.9,0.1,1.8,0.3,2.7,0.4c0.5,1.9,1,3.8,1.4,5.6
			c-0.9,0-1.9-0.1-2.9-0.2c-0.3-1.6-0.6-3.3-1-5C25,32.6,25,32.3,24.9,32z M26.9,45.4l1.3-0.2c0.5-0.1,0.9-0.2,1.3-0.2
			c-0.1,2.1-0.6,4.2-1.7,6.3c-0.5,0.2-1.1,0.5-1.7,0.7C26.8,49.8,26.9,47.7,26.9,45.4z M38.7,45.3c-0.1,0.1-0.2,0.1-0.3,0.2
			c0.3-1.2,0.5-2.4,0.6-3.6c0.2-0.1,0.3-0.2,0.5-0.4C39.3,42.8,39.1,44,38.7,45.3z"/>
	</g>
</g>
</svg>
