<?xml version="1.0" encoding="utf-8"?>
<!-- Generator: Adobe Illustrator 21.1.0, SVG Export Plug-In . SVG Version: 6.00 Build 0)  -->
<svg version="1.1" id="Layer_1" xmlns="http://www.w3.org/2000/svg" xmlns:xlink="http://www.w3.org/1999/xlink" x="0px" y="0px"
	 viewBox="0 0 62.4 62.4" style="enable-background:new 0 0 62.4 62.4;" xml:space="preserve">
<style type="text/css">
	.st0{fill:#52B68B;}
</style>
<g>
	<g>
		<path class="st0" d="M31.2,59.5c-15.6,0-28.3-12.7-28.3-28.3c0-15.6,12.7-28.3,28.3-28.3c15.6,0,28.3,12.7,28.3,28.3
			C59.5,46.8,46.8,59.5,31.2,59.5z M31.2,3.6C16,3.6,3.6,16,3.6,31.2c0,15.2,12.4,27.6,27.6,27.6c15.2,0,27.6-12.4,27.6-27.6
			C58.8,16,46.4,3.6,31.2,3.6z"/>
	</g>
	<g>
		<path class="st0" d="M38.3,28.9c2.8-1.6,4.4-3.9,4-5.9c0-0.1,0-0.1-0.1-0.2c1.4-1.2,3.4-2.9,3.7-3.4c0.3-0.7-0.1-1.7-0.9-0.7
			c-0.8,1-3.3,4.5-7.7,6.4c-4.5,1.9-10,1.4-11.7,1c-0.9-0.2-2.4-0.7-3.9-1.3c-0.7-0.3-0.9-0.1-0.1,0.3c2,0.9,4.7,1.8,7.8,1.9
			c0,0,6.6,0.4,11.5-3.1c0,0,0.3-0.2,0.6-0.5c0.1,1.6-1.2,3.5-3.6,4.8c-0.8,0.5-1.8,0.9-2.8,1.2c1.4-0.9,2.4-1.8,2.5-1.8
			c0.2-0.1,0.2-0.4,0-0.5c-0.1-0.2-0.4-0.2-0.5,0c0,0-2.7,2.3-5.1,3.1c0,0,0,0,0,0c-3,0.3-6.3,0-9.7-1.3c1.3-0.1,2.6-0.5,3.5-0.8
			c0.2-0.1,0.3-0.3,0.3-0.5c-0.1-0.2-0.3-0.3-0.5-0.3c-1.1,0.3-3.8,1.1-5.2,0.7c-2-1-4-2.3-5.8-4c-2-1.8-2.3-3.8-1.6-4.7
			c0.5-0.6,1.3-0.7,2.1-0.3c3.4,2,6.3,3.7,10.1,4c1.8,0.2,4.5,0.1,6.4-0.1l2.9,1.6c0.1,0,0.1,0,0.2,0c0.1,0,0.3-0.1,0.3-0.2
			c0.1-0.2,0-0.4-0.2-0.5l-1.9-1c0.2,0,0.4-0.1,0.6-0.1c0.7-0.1,1.2-0.2,1.7-0.4c0.4-0.1,0.8-0.3,1.3-0.4c0.6-0.2,1.2-0.4,1.8-0.5
			c0.3,0,0.6-0.1,0.9,0c0.5,0,1.1,0.2,1.7,0.6c0.2,0.1,0.4,0.1,0.5-0.1c0.1-0.2,0.1-0.4-0.1-0.5c-0.6-0.4-1.3-0.7-2.1-0.7
			c-0.4,0-0.7,0-1.1,0c-0.7,0.1-1.3,0.3-2,0.6c-0.4,0.1-0.8,0.3-1.2,0.4c-0.5,0.1-1,0.2-1.7,0.3C33,22,32.7,22,32.4,22l-0.5,0.1
			c0,0-0.1,0-0.1,0c0,0-0.1,0-0.1,0c0,0,0,0,0,0c0,0-0.1,0-0.1,0c-2.2,0.2-4.9,0.2-6.4,0.1c-3.6-0.3-6.5-2-9.7-3.9
			c-1.1-0.7-2.4-0.5-3.1,0.5c-0.9,1.2-0.8,3.6,1.7,5.8c4,3.7,10,6.5,16,6.5C32.8,31,35.7,30.4,38.3,28.9z"/>
		<path class="st0" d="M51.8,31.4c-0.2,0-0.6,0-1.1,0c-5.5-0.1-7.5,0-7.9,0.2c-0.3,0.2-0.6,0.4-1,0.7c-2.1,1.4-5.5,3.8-10,3.8
			c-1.2,0-1.9,1.3-1.9,3.5h-7.6c-1.6,0-2.7,1.4-2.7,2.7c0,1,0.7,2.2,2.7,2.2h17.8c1.3,0,2.2-0.7,3.2-1.6c1.5-1.2,3.1-2.6,6.6-2.6
			c0.2,0,0.4-0.2,0.4-0.4c0-0.2-0.2-0.4-0.4-0.4c-3.8,0-5.6,1.5-7.1,2.7c-1,0.8-1.7,1.4-2.7,1.4H22.4c-0.7,0-1.2-0.2-1.5-0.5
			c-0.3-0.3-0.4-0.7-0.4-1c0-0.9,0.8-1.9,1.9-1.9h9.2c0.3,0,0.6,0,0.9,0c2,0,4.8,0.1,7.3-1.2c0.2-0.1,0.3-0.3,0.2-0.5
			c-0.1-0.2-0.3-0.3-0.5-0.2c-2.3,1.2-4.9,1.2-6.9,1.1c-0.3,0-0.6,0-0.9,0h-0.8c0-1,0.2-2.7,1.2-2.7c4.7,0,8.3-2.5,10.5-4
			c0.4-0.2,0.7-0.5,0.9-0.6c0.6-0.2,5.8-0.2,7.5-0.1c0.5,0,0.9,0,1.1,0s0.4-0.2,0.4-0.4C52.2,31.6,52,31.4,51.8,31.4z"/>
	</g>
</g>
</svg>
