<?xml version="1.0" encoding="utf-8"?>
<!-- Generator: Adobe Illustrator 21.1.0, SVG Export Plug-In . SVG Version: 6.00 Build 0)  -->
<svg version="1.1" id="Layer_1" xmlns="http://www.w3.org/2000/svg" xmlns:xlink="http://www.w3.org/1999/xlink" x="0px" y="0px"
	 viewBox="0 0 62.4 62.4" style="enable-background:new 0 0 62.4 62.4;" xml:space="preserve">
<style type="text/css">
	.st0{fill:#52B68B;}
</style>
<g>
	<path class="st0" d="M31.2,59.5c-15.6,0-28.3-12.7-28.3-28.3c0-15.6,12.7-28.3,28.3-28.3c15.6,0,28.3,12.7,28.3,28.3
		C59.5,46.8,46.8,59.5,31.2,59.5z M31.2,3.6C16,3.6,3.6,16,3.6,31.2c0,15.2,12.4,27.6,27.6,27.6c15.2,0,27.6-12.4,27.6-27.6
		C58.8,16,46.4,3.6,31.2,3.6z"/>
	<g>
		<polygon class="st0" points="29,21.3 28.5,22.1 33.7,22.1 33.9,21.3 		"/>
		<polygon class="st0" points="26.2,25.3 25.7,26.1 32.5,26.1 32.7,25.3 		"/>
		<polygon class="st0" points="27.6,23.3 27.1,24.1 33.1,24.1 33.3,23.3 		"/>
		<polygon class="st0" points="24.8,27.4 24.2,28.1 41.9,28.1 42.5,27.4 		"/>
		<polygon class="st0" points="37.7,34.2 38.2,33.4 20.5,33.4 20,34.2 		"/>
		<polygon class="st0" points="21.9,31.4 21.4,32.2 39.1,32.2 39.6,31.4 		"/>
		<polygon class="st0" points="23.4,29.4 22.8,30.2 40.5,30.2 41,29.4 		"/>
		<polygon class="st0" points="34.9,18 35.1,17.2 31.9,17.2 31.3,18 		"/>
		<polygon class="st0" points="30.6,19 30.1,19.8 34.4,19.8 34.6,19 		"/>
		<polygon class="st0" points="35.5,16 35.7,15.2 33.3,15.2 32.8,16 		"/>
		<polygon class="st0" points="37.3,9.9 37.6,9.1 37.6,9.1 37,9.9 		"/>
		<polygon class="st0" points="36.7,11.9 37,11.1 36.1,11.1 35.6,11.9 		"/>
		<polygon class="st0" points="36.1,14 36.4,13.2 34.7,13.2 34.2,14 		"/>
	</g>
	<path class="st0" d="M36.9,35.5l-3.5,5L31.6,43L28,48.2l-3.6,5.1l1.5-5.1l1.5-5.1l0.8-2.6l1.5-5H6.6c2,11.7,12.3,20.7,24.6,20.7
		c12.3,0,22.6-8.9,24.6-20.7H36.9z"/>
</g>
</svg>
