<?xml version="1.0" encoding="UTF-8"?>
<svg id="Layer_1" data-name="Layer 1" xmlns="http://www.w3.org/2000/svg" viewBox="0 0 62.4 62.4">
  <defs>
    <style>
      .cls-1 {
        fill: #52b68b;
      }

      .cls-1, .cls-2 {
        stroke-width: 0px;
      }

      .cls-2 {
        fill: #26513e;
      }
    </style>
  </defs>
  <path class="cls-2" d="M35.82,59.11s-.08.04-.13.04c-.01,0-.02,0-.03-.01.06,0,.11,0,.16-.03Z"/>
  <g>
    <path class="cls-1" d="M35.82,59.11s-.08.04-.13.04c-.01,0-.02,0-.03-.01.06,0,.11,0,.16-.03Z"/>
    <path class="cls-1" d="M31.2,2.9C15.57,2.9,2.9,15.57,2.9,31.2c0,3.57.66,6.99,1.88,10.13,0,.01,0,.03.01.04.02.06.04.13.07.19t.01,0c.66,1.7,1.49,3.31,2.47,4.82,0,.02,0,.03.02.04.01.03.03.07.06.1,4.16,6.47,10.9,11.12,18.77,12.51.05.02.09.03.14.03,1.58.29,3.21.43,4.87.43,1.52,0,3-.12,4.45-.36h.01c.06,0,.11,0,.16-.03.01.01.02.01.02,0,13.42-2.2,23.66-13.86,23.66-27.91,0-15.63-12.67-28.3-28.3-28.3ZM4.73,39c5.03.02,9.98.72,14.69,2.09-.42.63-.67,1.38-.68,2.19-.48.3-.9.67-1.23,1.1-3.83-1.61-7.9-2.74-12.09-3.35-.26-.66-.49-1.34-.69-2.03ZM9.22,29.5l2.03,2.88v2.22c-.42.14-.87.22-1.31.22-2.29,0-4.15-1.86-4.15-4.15,0-1.52.83-2.92,2.17-3.64l.22-.13-.05-.25v-.09c0-1.92,1.56-3.48,3.47-3.48s3.48,1.56,3.48,3.48c0,.05,0,.1-.01.15l-.03.24.21.12c1.29.72,2.1,2.11,2.1,3.6,0,2.29-1.86,4.15-4.15,4.15-.43,0-.85-.07-1.25-.2v-2.21l1.81-1.78c.14-.14.14-.36,0-.5-.13-.13-.35-.14-.49,0l-1.32,1.3v-3.14c0-.19-.16-.35-.35-.35s-.35.16-.35.35v2.87l-1.46-2.06c-.11-.16-.33-.2-.49-.09-.16.12-.19.33-.08.49ZM19.44,43.33c0-1.85,1.5-3.36,3.35-3.36s3.35,1.51,3.35,3.36c0,.05,0,.09-.01.14l-.03.24.21.12c1.25.7,2.03,2.03,2.03,3.47,0,2.21-1.8,4-4.01,4-.41,0-.81-.06-1.19-.18v-2.13l1.74-1.72c.14-.14.14-.36.01-.5-.14-.13-.36-.14-.5,0l-1.25,1.23v-3c0-.19-.16-.35-.35-.35s-.35.16-.35.35v2.73l-1.39-1.96c-.11-.15-.33-.19-.49-.08-.16.11-.19.33-.08.49l1.96,2.78v2.14c-.4.13-.83.2-1.26.2-2.2,0-4-1.79-4-4,0-1.47.8-2.81,2.09-3.51l.23-.21-.06-.25ZM5.71,41.78c3.95.61,7.78,1.68,11.39,3.18-.4.7-.62,1.5-.62,2.34,0,2.59,2.11,4.7,4.7,4.7.43,0,.85-.06,1.26-.17v2.55c-4.15-3.56-9.08-6.41-14.51-8.36-.86-1.34-1.6-2.75-2.22-4.24ZM8.6,47.02c6.55,2.5,12.31,6.33,16.76,11.16-6.9-1.49-12.84-5.57-16.76-11.16ZM31.2,58.8c-1.6,0-3.17-.14-4.69-.41-1.05-1.19-2.17-2.32-3.37-3.39v-3.15c.39.1.78.15,1.19.15,1.16,0,2.23-.42,3.05-1.13,2.94,2.25,5.52,4.83,7.65,7.66-1.25.18-2.53.27-3.83.27ZM35.83,58.4h-.01c-2.2-2.97-4.87-5.67-7.94-8.02.72-.83,1.16-1.91,1.16-3.08,0-1.01-.33-1.97-.9-2.76,1.59.82,3.12,1.71,4.58,2.7-.31.53-.48,1.14-.48,1.78,0,1.98,1.6,3.59,3.58,3.59.28,0,.57-.03.84-.1v2.24c0,.2.16.35.35.35s.35-.15.35-.35v-2.23c.26.06.53.09.8.09.35,0,.69-.05,1.01-.15,1.24,1.22,2.39,2.52,3.43,3.87-2.12.97-4.4,1.68-6.77,2.07ZM34.62,46.07c0-1.32,1.07-2.4,2.39-2.4s2.4,1.08,2.4,2.4v.09l-.04.24.21.12c.9.51,1.46,1.47,1.46,2.5,0,1.25-.8,2.32-1.91,2.72-.3.11-.63.17-.97.17-.27,0-.54-.04-.8-.11v-1.49l1.27-1.25c.14-.13.14-.35,0-.49-.13-.14-.35-.14-.49,0l-.78.77v-2.02c0-.19-.16-.35-.35-.35s-.35.16-.35.35v1.75l-.87-1.23c-.11-.16-.33-.2-.49-.08-.15.11-.19.33-.08.48l1.44,2.04v1.5c-.26.09-.55.13-.84.13-1.59,0-2.88-1.3-2.88-2.89,0-.62.2-1.22.56-1.7.24-.33.56-.62.94-.82l.23-.17-.05-.26ZM43.26,56.03c-.72-.93-1.48-1.84-2.3-2.72,3.8-3.26,8.46-5.79,13.54-7.35-2.72,4.31-6.62,7.81-11.24,10.07ZM55.05,45.07c-5.48,1.57-10.51,4.24-14.57,7.72-.2-.21-.4-.42-.61-.62,1.11-.61,1.87-1.79,1.87-3.15,0-1.21-.62-2.34-1.63-3,5.02-2.72,10.81-4.35,16.78-4.76-.51,1.32-1.13,2.6-1.84,3.81ZM57.17,40.54c-6.09.36-12.01,2-17.16,4.75-.35-1.33-1.56-2.32-3-2.32-1.68,0-3.05,1.35-3.09,3.02-.3.19-.57.42-.79.68-.91-.62-1.85-1.2-2.82-1.75,6.48-4.41,14.63-6.82,23.01-6.82,1.52,0,3.04.08,4.54.23-.2.75-.43,1.49-.69,2.21ZM54.99,37.44s.01-.02.01-.03l.23-10.6-7.25-4.65v3.36l-6.98-3.27v3.1l-6.33-3.11v2.88h-1.14l-.91-7.94-.45-3.93h-5.1l-.48,3.92h0s-.93,7.67-.93,7.67h-3.95v12.91c0,.19.16.35.35.35.2,0,.35-.16.35-.35v-12.21h6.36c.2,0,.35-.16.35-.35s-.15-.35-.35-.35h-2.41l.89-7.31h4.7l.96,8.29h2.46v-2.46l6.33,3.11v-3.12l6.98,3.27v-3.18l5.84,3.75-.22,10.2s0,.02.01.03c-.33-.02-.66-.02-.99-.02-8.65,0-17.06,2.54-23.7,7.15-.91-.51-1.84-.98-2.79-1.42-.1-2.15-1.88-3.86-4.04-3.86-1.13,0-2.16.47-2.9,1.23-2.6-.77-5.26-1.34-7.98-1.7.03-.05.04-.1.04-.15v-3.3c.4.11.82.17,1.25.17,2.67,0,4.85-2.18,4.85-4.85,0-1.67-.86-3.23-2.27-4.1h0c0-2.31-1.87-4.19-4.18-4.19s-4.15,1.85-4.17,4.14c-1.45.88-2.34,2.45-2.34,4.15,0,2.67,2.18,4.85,4.85,4.85.45,0,.89-.06,1.31-.18v3.31s0,.05.02.07c-2.22-.28-4.47-.42-6.74-.42-.61-2.27-.93-4.65-.93-7.1C3.6,15.98,15.98,3.6,31.2,3.6s27.6,12.38,27.6,27.6c0,2.22-.26,4.38-.77,6.45-1-.11-2.02-.18-3.04-.21ZM31.87,16.83h-4.53l.35-2.88h3.85l.33,2.88Z"/>
    <g>
      <path class="cls-1" d="M26.62,33.86l-.42,1.63h-1.37l1.79-6.36h1.74l1.81,6.36h-1.42l-.45-1.63h-1.68ZM28.1,32.79l-.37-1.35c-.1-.38-.21-.85-.29-1.23h-.02c-.09.38-.17.86-.27,1.23l-.35,1.35h1.29Z"/>
      <path class="cls-1" d="M34.78,34.01c0,.6.02,1.09.03,1.48h-1.15l-.06-.65h-.03c-.17.28-.56.75-1.33.75-.86,0-1.49-.58-1.49-2.01v-2.71h1.33v2.48c0,.67.2,1.07.66,1.07.36,0,.57-.27.66-.5.04-.08.04-.2.04-.31v-2.74h1.33v3.13Z"/>
      <path class="cls-1" d="M35.83,34.24c.24.16.75.35,1.14.35s.56-.15.56-.39-.13-.35-.62-.53c-.88-.32-1.22-.84-1.21-1.39,0-.86.68-1.51,1.73-1.51.5,0,.94.12,1.2.26l-.23.99c-.19-.11-.56-.26-.92-.26-.32,0-.5.14-.5.38,0,.22.17.33.69.53.81.3,1.15.75,1.16,1.42,0,.86-.62,1.49-1.84,1.49-.56,0-1.05-.13-1.37-.32l.23-1.03Z"/>
      <path class="cls-1" d="M41.09,29.56v1.32h.95v1.06h-.95v1.67c0,.56.12.81.52.81.17,0,.29-.02.39-.04v1.08c-.17.08-.48.12-.85.12-.43,0-.78-.16-.99-.4-.24-.27-.36-.72-.36-1.37v-1.89h-.56v-1.06h.56v-1l1.29-.32Z"/>
      <path class="cls-1" d="M42.8,32.4c0-.68-.02-1.12-.03-1.52h1.14l.04.85h.03c.22-.67.74-.95,1.15-.95.12,0,.18,0,.28.02v1.35c-.1-.02-.21-.04-.36-.04-.49,0-.82.28-.9.73-.02.09-.03.21-.03.32v2.34h-1.32v-3.09Z"/>
      <path class="cls-1" d="M47.47,29.6c0,.4-.28.72-.71.72s-.69-.32-.69-.72c0-.42.27-.73.69-.73s.69.31.7.73ZM46.1,35.5v-4.61h1.32v4.61h-1.32Z"/>
      <path class="cls-1" d="M50.9,35.5l-.08-.46h-.03c-.28.37-.71.57-1.21.57-.86,0-1.37-.68-1.37-1.41,0-1.2.99-1.77,2.49-1.76v-.07c0-.25-.12-.59-.77-.59-.43,0-.89.16-1.17.35l-.24-.92c.29-.18.88-.41,1.65-.41,1.42,0,1.87.91,1.87,1.99v1.6c0,.44.02.87.06,1.12h-1.19ZM50.74,33.32c-.69,0-1.23.17-1.23.73,0,.37.23.55.52.55.33,0,.6-.24.69-.53.02-.08.03-.16.03-.25v-.5Z"/>
    </g>
  </g>
</svg>