<?xml version="1.0" encoding="utf-8"?>
<!-- Generator: Adobe Illustrator 21.1.0, SVG Export Plug-In . SVG Version: 6.00 Build 0)  -->
<svg version="1.1" id="Layer_1" xmlns="http://www.w3.org/2000/svg" xmlns:xlink="http://www.w3.org/1999/xlink" x="0px" y="0px"
	 viewBox="0 0 62.4 62.4" style="enable-background:new 0 0 62.4 62.4;" xml:space="preserve">
<style type="text/css">
	.st0{fill:#52B68B;}
</style>
<g>
	<path class="st0" d="M31.2,59.5c-15.6,0-28.3-12.7-28.3-28.3c0-15.6,12.7-28.3,28.3-28.3c15.6,0,28.3,12.7,28.3,28.3
		C59.5,46.8,46.8,59.5,31.2,59.5z M31.2,3.6C16,3.6,3.6,16,3.6,31.2c0,15.2,12.4,27.6,27.6,27.6c15.2,0,27.6-12.4,27.6-27.6
		C58.8,16,46.4,3.6,31.2,3.6z"/>
	<g>
		<path class="st0" d="M32.1,40.4c-4.7,0-8.5-3.8-8.5-8.5c0-0.2-0.2-0.4-0.4-0.4c-0.2,0-0.4,0.2-0.4,0.4c0,4.7-3.8,8.5-8.5,8.5
			c-0.2,0-0.4,0.2-0.4,0.4c0,0.2,0.2,0.4,0.4,0.4c4.7,0,8.5,3.8,8.5,8.5c0,0.2,0.2,0.4,0.4,0.4c0.2,0,0.4-0.2,0.4-0.4
			c0-4.7,3.8-8.5,8.5-8.5c0.2,0,0.4-0.2,0.4-0.4C32.5,40.6,32.3,40.4,32.1,40.4z"/>
		<g>
			<path class="st0" d="M37.4,41.5c-0.2,0-0.4-0.2-0.4-0.4c0-8.1-6.6-14.6-14.6-14.6c-0.2,0-0.4-0.2-0.4-0.4s0.2-0.4,0.4-0.4
				c8.1,0,14.6-6.6,14.6-14.6c0-0.2,0.2-0.4,0.4-0.4c0.2,0,0.4,0.2,0.4,0.4c0,8.1,6.6,14.6,14.6,14.6c0.2,0,0.4,0.2,0.4,0.4
				s-0.2,0.4-0.4,0.4c-8.1,0-14.6,6.5-14.6,14.6C37.8,41.4,37.7,41.5,37.4,41.5z M25.9,26.2c5.7,1.3,10.2,5.8,11.5,11.5
				C38.8,32,43.3,27.5,49,26.2c-5.7-1.3-10.2-5.8-11.5-11.5C36.1,20.3,31.6,24.9,25.9,26.2z"/>
		</g>
	</g>
</g>
</svg>
