<?xml version="1.0" encoding="utf-8"?>
<!-- Generator: Adobe Illustrator 21.1.0, SVG Export Plug-In . SVG Version: 6.00 Build 0)  -->
<svg version="1.1" id="Layer_1" xmlns="http://www.w3.org/2000/svg" xmlns:xlink="http://www.w3.org/1999/xlink" x="0px" y="0px"
	 viewBox="0 0 62.4 62.4" style="enable-background:new 0 0 62.4 62.4;" xml:space="preserve">
<style type="text/css">
	.st0{fill:#52B68B;}
</style>
<g>
	<path class="st0" d="M31.2,59.5c-15.6,0-28.3-12.7-28.3-28.3c0-15.6,12.7-28.3,28.3-28.3c15.6,0,28.3,12.7,28.3,28.3
		C59.5,46.8,46.8,59.5,31.2,59.5z M31.2,3.6C16,3.6,3.6,16,3.6,31.2c0,15.2,12.4,27.6,27.6,27.6c15.2,0,27.6-12.4,27.6-27.6
		C58.8,16,46.4,3.6,31.2,3.6z"/>
	<g>
		<path class="st0" d="M52.5,20.9c-0.2-0.2-0.4-0.2-0.6,0c-1.8,1.8-7.4-1-12.8-3.7c-6.1-3.1-11.9-6-14.3-3.6
			c-2.3,2.3,1.4,8.6,5.7,15.8c0.4,0.6,0.7,1.2,1.1,1.8c0.2,3.3,0.2,6.6-2.8,9.6c-2,2-5.3,1.4-8.8,0.8c-3.6-0.7-7.3-1.3-9.6,1
			c-0.2,0.2-0.2,0.4,0,0.6c0.2,0.2,0.4,0.2,0.6,0c2-2,7.6,0.7,13,3.3c4.3,2.1,8.4,4.1,11.2,4.1c1,0,1.9-0.3,2.5-0.9
			c3.4-3.4-0.8-11-5.3-18.8c0-0.3,0-0.5-0.1-0.7c-0.3-3-0.5-5.7,1.5-7.7c2.1-2.1,5.7-1.3,9.2-0.5c3.6,0.8,7.3,1.6,9.5-0.6
			C52.7,21.3,52.7,21,52.5,20.9z M27.5,16.2c1.7-1.7,5.6-0.3,9.8,1.5c-3.4-1.2-6.5-1.7-8.3,0c-1.3,1.3-1.2,3.3-0.5,5.7
			C27,20.1,26.3,17.5,27.5,16.2z M33,45c-1.9,1.9-6,0.5-10.2-1c1.7,0.5,3.4,0.8,4.9,0.8c1.5,0,2.8-0.4,3.7-1.3c2-2,2.4-4.6,2.1-7.3
			C34.7,39.7,35.1,42.9,33,45z M30.4,46.7c1.3,0,2.4-0.3,3.2-1.1c1.9-1.9,2-4.5,1.3-7.5c1.5,3.8,2.1,7.1,0.2,9
			c-1.7,1.7-5.7,0.3-9.8-1.4C27.1,46.2,28.9,46.7,30.4,46.7z M29.6,18.3c1.9-1.9,6-0.5,10.1,1.2c-3.4-1-6.7-1.5-8.6,0.4
			c-1.4,1.4-1.5,3.4-1.1,5.7C28.9,22.4,28.2,19.7,29.6,18.3z M25.4,14.1c1.5-1.5,5.2-0.2,9.4,1.8c-3.4-1.3-6.2-1.8-7.8-0.2
			c-1.1,1.1-1,3-0.2,5.3C25.1,17.8,24.3,15.2,25.4,14.1z M29.4,41.4c2.2-2.2,2.9-4.7,3.1-7c0.7,3.2,0.7,6.3-1.5,8.6
			c-2,2-6,0.9-9.8-0.2c-0.2-0.1-0.4-0.1-0.6-0.2C23.8,43.1,27.2,43.6,29.4,41.4z M37.2,49.2c-1.5,1.5-5.3,0.2-9.4-1.7
			c1.9,0.7,3.6,1.2,5.1,1.2c1.1,0,2.1-0.3,2.8-1c1.7-1.7,1.7-4.3,0.9-7.3C38.2,44.2,38.9,47.5,37.2,49.2z M33.3,22
			c-1.6,1.6-1.9,3.5-1.9,5.6c-0.8-3-1.2-5.6,0.3-7.2c2-2,6.2-0.7,10.3,0.6c0,0,0.1,0,0.1,0C38.8,20.3,35.4,19.9,33.3,22z"/>
	</g>
</g>
</svg>
