<?xml version="1.0" encoding="utf-8"?>
<!-- Generator: Adobe Illustrator 21.1.0, SVG Export Plug-In . SVG Version: 6.00 Build 0)  -->
<svg version="1.1" id="Layer_1" xmlns="http://www.w3.org/2000/svg" xmlns:xlink="http://www.w3.org/1999/xlink" x="0px" y="0px"
	 viewBox="0 0 62.4 62.4" style="enable-background:new 0 0 62.4 62.4;" xml:space="preserve">
<style type="text/css">
	.st0{fill:#52B68B;}
</style>
<g>
	<path class="st0" d="M31.2,59.5c-15.6,0-28.3-12.7-28.3-28.3c0-15.6,12.7-28.3,28.3-28.3c15.6,0,28.3,12.7,28.3,28.3
		C59.5,46.8,46.8,59.5,31.2,59.5z M31.2,3.6C16,3.6,3.6,16,3.6,31.2c0,15.2,12.4,27.6,27.6,27.6c15.2,0,27.6-12.4,27.6-27.6
		C58.8,16,46.4,3.6,31.2,3.6z"/>
	<g>
		<path class="st0" d="M48.4,31.6c0-0.9-0.1-1.7-0.3-2.4c2.3-0.5,4.9-1.1,7.7-1.8c0-0.3-0.1-0.5-0.1-0.8c-11.9,3.1-19.4,4-23.4,2.8
			c0.1-0.1,0.3-0.2,0.4-0.3c0.6-0.5,1.3-0.8,2-1.2c4,0.4,10.9-0.7,20.6-3.2c-0.1-0.3-0.1-0.5-0.2-0.8c-3.1,0.8-6,1.5-8.5,2
			c0,0,0,0,0-0.1c-0.6-0.7-1.4-1.3-2.2-1.7c-3.9-2-9.4-0.7-13.1,1.7c-3.6-2.3-9.1-3.8-13.1-1.7c-0.7,0.4-1.5,0.9-2.2,1.8
			c-2.6-0.5-5.5-1.2-8.6-2c-0.1,0.2-0.1,0.5-0.2,0.8c3,0.8,5.8,1.5,8.3,2c-0.3,0.5-0.6,1.1-0.8,1.7c-2.4-0.5-5-1.1-7.9-1.9
			c0,0.3-0.1,0.5-0.1,0.8c2.9,0.8,5.5,1.4,7.9,1.9c-0.2,0.7-0.3,1.5-0.3,2.4c0,0.9,0.1,1.7,0.3,2.4c-2.3,0.5-4.9,1.1-7.7,1.8
			c0,0.3,0.1,0.5,0.2,0.8c2.8-0.7,5.4-1.4,7.8-1.9c0.2,0.7,0.5,1.2,0.8,1.7c-2.4,0.5-5.1,1.1-8.1,1.9c0.1,0.2,0.2,0.5,0.2,0.7
			c3.1-0.8,5.9-1.5,8.4-2c0.7,0.8,1.5,1.4,2.2,1.8c1.3,0.7,2.7,1,4.4,1c2.8,0,6.1-1,8.7-2.7c2.6,1.7,5.8,2.7,8.7,2.7
			c1.7,0,3.1-0.3,4.4-1c0.9-0.4,1.6-1,2.2-1.8c2.5,0.5,5.2,1.1,8.2,1.9c0.1-0.2,0.2-0.5,0.2-0.7c-3.1-0.8-6-1.5-8.5-2c0,0,0,0,0,0
			c-5.2-1-9.2-1.4-11.8-1.2c-0.7-0.3-1.4-0.7-2-1.2c-0.1-0.1-0.3-0.2-0.4-0.3c4-1.2,11.5-0.3,23.2,2.8c0.1-0.3,0.1-0.5,0.2-0.8
			c-2.7-0.7-5.2-1.3-7.5-1.8C48.3,33.3,48.4,32.5,48.4,31.6z M36.4,27.3c1.9-0.6,3.7-0.8,5.2-0.4C39.6,27.2,37.8,27.3,36.4,27.3z
			 M44,25c0.6,0.3,1.2,0.8,1.7,1.2c-0.9,0.2-1.7,0.3-2.5,0.4c0,0,0,0,0,0c-2.2-1.1-5.6-0.8-8.7,0.6c0,0,0,0,0,0
			c-0.8,0.4-1.5,0.8-2.2,1.3c-2.3,1.6-6.9,1.8-14.1,0.6c0.3-0.7,0.8-1.3,1.4-1.7c2.6,0.4,4.8,0.6,6.6,0.6c2.3,0,4-0.4,5-1.1
			C34.6,24.5,40.2,23,44,25z M21,26.9c1.5-0.3,3.3-0.2,5.1,0.4C24.7,27.3,23,27.2,21,26.9z M22.6,39.2c-1.5,0-2.9-0.3-4-0.9
			c-1.6-0.8-3.6-2.7-3.6-6.7c0-4,2-5.8,3.6-6.7c3.6-1.9,8.6-0.6,12,1.5c-0.6,0.4-1.4,0.6-2.5,0.8c-3.1-1.5-6.5-1.7-8.7-0.6
			c-1.1,0.6-1.9,1.5-2.3,2.7c0,0,0,0,0,0c0,0,0,0,0,0c-0.2,0.7-0.3,1.4-0.3,2.3c0,2.3,0.8,3.9,2.3,4.8c0,0,0.1,0.1,0.1,0.1
			c0,0,0.1,0,0.1,0.1c0.9,0.5,2,0.7,3.2,0.7c1.7,0,3.6-0.4,5.4-1.3c1.1,0.1,1.9,0.4,2.5,0.8C28.1,38.3,25.2,39.2,22.6,39.2z
			 M21,36.4c2-0.3,3.7-0.4,5.2-0.4C24.3,36.5,22.5,36.7,21,36.4z M41.6,36.4c-1.5,0.3-3.3,0.2-5.2-0.4
			C37.8,35.9,39.6,36.1,41.6,36.4z M39.9,37.3c1.2,0,2.3-0.2,3.2-0.7c0,0,0,0,0,0c0.8,0.1,1.6,0.3,2.5,0.5c-0.5,0.5-1,0.9-1.7,1.2
			c-1.2,0.6-2.5,0.9-4,0.9c-2.9,0-6.3-1.1-8.8-3c-1.8-1.3-5.6-1.4-11.6-0.4c-0.6-0.4-1.1-0.9-1.4-1.7c7.2-1.3,11.8-1.1,14.1,0.6
			C34.5,36.4,37.4,37.3,39.9,37.3z M44.7,33.4c-6.4-1.1-10.7-1.1-13.4,0c-2.7-1.1-7.1-1.1-13.5,0.1c-0.1-0.5-0.2-1.1-0.2-1.8
			c0-0.6,0.1-1.2,0.2-1.7c3.2,0.6,6,0.9,8.2,0.9c2.2,0,3.9-0.3,5.2-0.8c1.3,0.5,3.1,0.8,5.3,0.8c2.2,0,4.9-0.3,8.2-0.9
			c0.1,0.5,0.2,1.1,0.2,1.7C44.9,32.3,44.8,32.9,44.7,33.4z M47.3,33.9c-0.6-0.1-1.2-0.2-1.8-0.3c0.1-0.6,0.2-1.2,0.2-1.9
			c0-0.7-0.1-1.3-0.2-1.9c0.6-0.1,1.2-0.2,1.8-0.3c0.2,0.7,0.3,1.4,0.3,2.2C47.6,32.4,47.5,33.2,47.3,33.9z"/>
	</g>
</g>
</svg>
