<?xml version="1.0" encoding="utf-8"?>
<!-- Generator: Adobe Illustrator 21.1.0, SVG Export Plug-In . SVG Version: 6.00 Build 0)  -->
<svg version="1.1" id="Layer_1" xmlns="http://www.w3.org/2000/svg" xmlns:xlink="http://www.w3.org/1999/xlink" x="0px" y="0px"
	 viewBox="0 0 62.4 62.4" style="enable-background:new 0 0 62.4 62.4;" xml:space="preserve">
<style type="text/css">
	.st0{fill:#52B68B;}
</style>
<g>
	<path class="st0" d="M31.2,59.5c-15.6,0-28.3-12.7-28.3-28.3c0-15.6,12.7-28.3,28.3-28.3c15.6,0,28.3,12.7,28.3,28.3
		C59.5,46.8,46.8,59.5,31.2,59.5z M31.2,3.6C16,3.6,3.6,16,3.6,31.2c0,15.2,12.4,27.6,27.6,27.6c15.2,0,27.6-12.4,27.6-27.6
		C58.8,16,46.4,3.6,31.2,3.6z"/>
	<g>
		<g>
			<path class="st0" d="M22,11.6l-0.2,2.3l5-4.3L20.2,9l1.6,1.8c-7.9,3.7-13,11.5-13,20.3c0,4.5,1.3,8.9,3.9,12.6
				c0.1,0.1,0.2,0.2,0.3,0.2c0.1,0,0.2,0,0.2-0.1c0.2-0.1,0.2-0.4,0.1-0.5c-2.4-3.6-3.7-7.8-3.7-12.2C9.5,22.7,14.4,15.2,22,11.6z"
				/>
			<path class="st0" d="M42.8,49.5c-3.5,2.2-7.5,3.4-11.6,3.4c-2.4,0-4.8-0.4-7-1.2l1.7-1.5l-6.6-0.4l4.3,5l0.1-2.4
				c2.4,0.8,4.9,1.3,7.4,1.3c4.3,0,8.4-1.2,12-3.5c0.2-0.1,0.2-0.4,0.1-0.5C43.2,49.4,42.9,49.3,42.8,49.5z"/>
			<path class="st0" d="M50,36.9l-0.5,6.6l5.1-4.2l-2.4-0.2c0.9-2.5,1.4-5.2,1.4-7.9c0-10.7-7.6-19.9-18-22c-0.2,0-0.4,0.1-0.5,0.3
				c0,0.2,0.1,0.4,0.3,0.5c10.1,2,17.4,10.9,17.4,21.2c0,2.6-0.4,5.1-1.3,7.5L50,36.9z"/>
		</g>
		<g>
			<path class="st0" d="M43.6,43.4H18.8c-0.2,0-0.4-0.2-0.4-0.4v-8.9c0-0.1,0-0.2,0.1-0.2l5.3-6.5c0.1-0.1,0.3-0.2,0.4-0.1
				c0.2,0.1,0.3,0.2,0.3,0.4v5.4l4.8-5.7c0.1-0.1,0.3-0.2,0.4-0.1c0.2,0.1,0.3,0.2,0.3,0.4v5.4l4.9-5.7c0.1-0.1,0.3-0.2,0.4-0.1
				c0.2,0.1,0.3,0.2,0.3,0.4v6.1H37l1.4-14.4c0-0.2,0.2-0.4,0.4-0.4h2.8c0.2,0,0.4,0.2,0.4,0.4l2,23.7c0,0.1,0,0.2-0.1,0.3
				C43.8,43.4,43.7,43.4,43.6,43.4z M19.2,42.6h23.9l-1.9-22.9h-2.1l-1.9,19c0,0.2-0.2,0.4-0.4,0.3c-0.2,0-0.4-0.2-0.3-0.4l0.4-4.1
				h-1.7c-0.2,0-0.4-0.2-0.4-0.4v-5.4l-4.9,5.7c-0.1,0.1-0.3,0.2-0.4,0.1c-0.2-0.1-0.3-0.2-0.3-0.4v-5.4l-4.8,5.7
				c-0.1,0.1-0.3,0.2-0.4,0.1c-0.2-0.1-0.3-0.2-0.3-0.4v-5.4l-4.5,5.5V42.6z"/>
			<path class="st0" d="M33.5,40.2H20.7c-0.2,0-0.4-0.2-0.4-0.4v-2.2c0-0.2,0.2-0.4,0.4-0.4h12.8c0.2,0,0.4,0.2,0.4,0.4v2.2
				C33.9,40,33.7,40.2,33.5,40.2z M21,39.4h12.1V38H21V39.4z"/>
		</g>
	</g>
</g>
</svg>
