<?xml version="1.0" encoding="utf-8"?>
<!-- Generator: Adobe Illustrator 21.1.0, SVG Export Plug-In . SVG Version: 6.00 Build 0)  -->
<svg version="1.1" id="Layer_1" xmlns="http://www.w3.org/2000/svg" xmlns:xlink="http://www.w3.org/1999/xlink" x="0px" y="0px"
	 viewBox="0 0 62.4 62.4" style="enable-background:new 0 0 62.4 62.4;" xml:space="preserve">
<style type="text/css">
	.st0{fill:#52B68B;}
</style>
<g>
	<path class="st0" d="M31.2,59.5c-15.6,0-28.3-12.7-28.3-28.3c0-15.6,12.7-28.3,28.3-28.3c15.6,0,28.3,12.7,28.3,28.3
		C59.5,46.8,46.8,59.5,31.2,59.5z M31.2,3.6C16,3.6,3.6,16,3.6,31.2c0,15.2,12.4,27.6,27.6,27.6c15.2,0,27.6-12.4,27.6-27.6
		C58.8,16,46.4,3.6,31.2,3.6z"/>
	<g>
		<g>
			<path class="st0" d="M42.6,14.9c0.1,0,0.1,0.1,0.2,0.1c0.1,0,0.3-0.1,0.3-0.2l2.1-3.7c0.1-0.2,0-0.4-0.1-0.5
				c-0.2-0.1-0.4,0-0.5,0.1l-2.1,3.7C42.4,14.6,42.5,14.8,42.6,14.9z"/>
			<path class="st0" d="M46.8,18.9c0.1,0,0.1,0,0.2-0.1l3.7-2.1c0.2-0.1,0.3-0.3,0.1-0.5c-0.1-0.2-0.3-0.2-0.5-0.1l-3.7,2.1
				c-0.2,0.1-0.3,0.3-0.1,0.5C46.5,18.9,46.7,18.9,46.8,18.9z"/>
			<path class="st0" d="M52.5,23.6h-4.3c-0.2,0-0.4,0.2-0.4,0.4s0.2,0.4,0.4,0.4h4.3c0.2,0,0.4-0.2,0.4-0.4S52.7,23.6,52.5,23.6z"/>
			<path class="st0" d="M50.7,31.2L47,29c-0.2-0.1-0.4,0-0.5,0.1c-0.1,0.2,0,0.4,0.1,0.5l3.7,2.1c0.1,0,0.1,0.1,0.2,0.1
				c0.1,0,0.3-0.1,0.3-0.2C50.9,31.5,50.9,31.3,50.7,31.2z"/>
			<path class="st0" d="M43.2,33.1c-0.1-0.2-0.3-0.2-0.5-0.1c-0.2,0.1-0.3,0.3-0.1,0.5l2.1,3.7c0.1,0.1,0.2,0.2,0.3,0.2
				c0.1,0,0.1,0,0.2-0.1c0.2-0.1,0.3-0.3,0.1-0.5L43.2,33.1z"/>
			<path class="st0" d="M37.5,34.3c-0.2,0-0.4,0.2-0.4,0.4V39c0,0.2,0.2,0.4,0.4,0.4c0.2,0,0.4-0.2,0.4-0.4v-4.3
				C37.9,34.5,37.7,34.3,37.5,34.3z"/>
			<path class="st0" d="M37.5,13.6c0.2,0,0.4-0.2,0.4-0.4V8.9c0-0.2-0.2-0.4-0.4-0.4c-0.2,0-0.4,0.2-0.4,0.4v4.3
				C37.1,13.4,37.3,13.6,37.5,13.6z"/>
			<path class="st0" d="M33.1,44.2v-2.4h-1.4c-0.7,0-1.3-0.6-1.3-1.3c0-0.7,0.6-1.3,1.3-1.3h1.4v-2.1h-0.6c-0.7,0-1.3-0.6-1.3-1.3
				c0-0.7,0.6-1.3,1.3-1.3h0.6v-2.1h-1.4c-0.7,0-1.3-0.6-1.3-1.3c0-0.7,0.6-1.3,1.3-1.3h1.4v-1c0-0.4-0.1-0.8-0.3-1h-0.3
				c-0.5,0-1-0.3-1.2-0.8c0,0,0,0-0.1,0c-1,0-1.8,0.8-1.8,1.8v15.3c-1.2,0.7-2.1,2-2.1,3.5c0,2.2,1.8,3.9,3.9,3.9
				c2.2,0,3.9-1.8,3.9-3.9C35.2,46.1,34.3,44.8,33.1,44.2z"/>
			<path class="st0" d="M34.4,42.3v-9.5c1,0.3,2.1,0.5,3.1,0.5c5.3,0,9.6-4.3,9.6-9.6c0-5.3-4.3-9.6-9.6-9.6c-1.1,0-2.1,0.2-3.2,0.5
				c-0.2-1.6-1.5-2.9-3.2-2.9c-1.8,0-3.2,1.4-3.2,3.2v11.2l-4.1,2.4v-4.9l3.7-3.7c0.2-0.2,0.2-0.4,0-0.6c-0.2-0.2-0.4-0.2-0.6,0
				l-3.2,3.2v-5.1c0-0.2-0.2-0.4-0.4-0.4c-0.2,0-0.4,0.2-0.4,0.4v5.1l-3.2-3.2c-0.2-0.2-0.4-0.2-0.6,0c-0.2,0.2-0.2,0.4,0,0.6
				l3.7,3.7v4.9l-4.3-2.5l-1.4-5.1c-0.1-0.2-0.3-0.3-0.5-0.3c-0.2,0.1-0.3,0.3-0.3,0.5l1.2,4.3l-4.5-2.6c-0.2-0.1-0.4,0-0.5,0.1
				c-0.1,0.2,0,0.4,0.1,0.5l4.5,2.6l-4.3,1.2c-0.2,0.1-0.3,0.3-0.3,0.5c0,0.2,0.2,0.3,0.4,0.3c0,0,0.1,0,0.1,0l5.1-1.4l4.3,2.5
				l-4.3,2.5l-5.1-1.4c-0.2-0.1-0.4,0.1-0.5,0.3c-0.1,0.2,0.1,0.4,0.3,0.5l4.3,1.2L13,34.9c-0.2,0.1-0.3,0.3-0.1,0.5
				c0.1,0.1,0.2,0.2,0.3,0.2c0.1,0,0.1,0,0.2-0.1l4.5-2.6l-1.2,4.3c-0.1,0.2,0.1,0.4,0.3,0.5c0,0,0.1,0,0.1,0c0.2,0,0.3-0.1,0.4-0.3
				l1.4-5.1l4.3-2.5V35l-3.7,3.7c-0.2,0.2-0.2,0.4,0,0.6c0.1,0.1,0.2,0.1,0.3,0.1c0.1,0,0.2,0,0.3-0.1l3.2-3.2v5.1
				c0,0.2,0.2,0.4,0.4,0.4c0.2,0,0.4-0.2,0.4-0.4v-5.1l3.2,3.2c0.1,0.1,0.2,0.1,0.3,0.1c0.1,0,0.2,0,0.3-0.1c0.2-0.2,0.2-0.4,0-0.6
				L23.8,35v-4.9l4.1,2.4v10c-1.7,1.1-2.8,3.1-2.8,5.1c0,3.4,2.7,6.1,6.1,6.1c3.4,0,6.1-2.7,6.1-6.1C37.3,45.4,36.2,43.4,34.4,42.3z
				 M46.3,23.7c0,4.9-4,8.8-8.8,8.8c-1.1,0-2.1-0.2-3.1-0.6V15.5c1-0.4,2-0.6,3.1-0.6C42.4,14.9,46.3,18.8,46.3,23.7z M24.1,29.3
				l3.9-2.2v4.4L24.1,29.3z M31.2,52.9c-2.9,0-5.3-2.4-5.3-5.3c0-1.9,1-3.6,2.6-4.6c0.1-0.1,0.2-0.2,0.2-0.3V15
				c0-1.3,1.1-2.4,2.4-2.4c1.3,0,2.4,1.1,2.4,2.4v1.8h-1.1c-0.2,0-0.4,0.2-0.4,0.4c0,0.2,0.2,0.4,0.4,0.4h1.1v3.9h-1.9
				c-0.2,0-0.4,0.2-0.4,0.4c0,0.2,0.2,0.4,0.4,0.4h1.9v3.9h-1.1c-0.2,0-0.4,0.2-0.4,0.4c0,0.2,0.2,0.4,0.4,0.4h1.1v3.9h-1.9
				c-0.2,0-0.4,0.2-0.4,0.4s0.2,0.4,0.4,0.4h1.9v3.9h-1.1c-0.2,0-0.4,0.2-0.4,0.4c0,0.2,0.2,0.4,0.4,0.4h1.1v3.9h-1.9
				c-0.2,0-0.4,0.2-0.4,0.4c0,0.2,0.2,0.4,0.4,0.4h1.9v1.7c0,0.1,0.1,0.3,0.2,0.3c1.7,0.9,2.8,2.7,2.8,4.7
				C36.5,50.5,34.2,52.9,31.2,52.9z"/>
		</g>
	</g>
</g>
</svg>
