<?xml version="1.0" encoding="utf-8"?>
<!-- Generator: Adobe Illustrator 21.1.0, SVG Export Plug-In . SVG Version: 6.00 Build 0)  -->
<svg version="1.1" id="Layer_1" xmlns="http://www.w3.org/2000/svg" xmlns:xlink="http://www.w3.org/1999/xlink" x="0px" y="0px"
	 viewBox="0 0 62.4 62.4" style="enable-background:new 0 0 62.4 62.4;" xml:space="preserve">
<style type="text/css">
	.st0{fill:#52B68B;}
</style>
<g>
	<path class="st0" d="M31.2,59.5c-15.6,0-28.3-12.7-28.3-28.3c0-15.6,12.7-28.3,28.3-28.3c15.6,0,28.3,12.7,28.3,28.3
		C59.5,46.8,46.8,59.5,31.2,59.5z M31.2,3.6C16,3.6,3.6,16,3.6,31.2c0,15.2,12.4,27.6,27.6,27.6c15.2,0,27.6-12.4,27.6-27.6
		C58.8,16,46.4,3.6,31.2,3.6z"/>
	<g>
		<g>
			<path class="st0" d="M23.9,25.4c-1.2,2-1.1,2.2,1.1,3.1c0.9,0.4,1.8,0.9,2.6,1.5c1.2,1,2.7,1.8,4.4,1.7c0.9,0,1.8,0.1,2.7,0.3
				c2.7,0.6,3.9,2.9,2.9,5.5c-0.9,2.3-4.3,3.7-6.6,2.7c-0.3-0.1-0.6-0.4-0.9-0.6c-1.2-0.9-2.6-1.3-4-0.8c-2.5,0.9-4.6,0.3-6.4-1.6
				c-0.2-0.2-0.5-0.4-0.8-0.6c-1-0.7-1.5-0.6-2.4,0.2c-0.3,0.3-0.6,0.7-1,1c-1.4,1.2-2.9,1.3-4.4,0.3c-1.3-0.9-2-2.9-1.5-4.3
				c0.5-1.6,1.9-2.4,3.7-2.3c0.7,0.1,1.4,0.2,2.1,0.5c1.4,0.4,1.9,0.3,2.8-0.8c0.2-0.3,0.4-0.5,0.6-0.8c1-1.6,0.9-2.1-0.7-3
				c-1.8-1-3-2.3-3.2-4.5c-0.1-2.7,1.6-4.7,4.3-5c1.5-0.1,3,0,4.1,1C25.4,20.6,25.6,22.6,23.9,25.4z"/>
		</g>
		<g>
			<path class="st0" d="M27,46.5c1.4,0.8,3.3,0.1,4.1-1.3c0.7-1.2,0.2-2.8-1.2-3.6c-1.3-0.8-3.2-0.3-4,1.1
				C25.1,44.1,25.6,45.8,27,46.5z"/>
		</g>
		<g>
			<path class="st0" d="M13.4,27.7c-0.3,0.6-0.1,1.3,0.5,1.7c0.6,0.3,1.3,0.1,1.6-0.4c0.4-0.6,0.2-1.4-0.4-1.7
				C14.5,26.8,13.7,27.1,13.4,27.7z"/>
		</g>
		<g>
			<path class="st0" d="M34.3,48.4c0.1,0.5,0.3,0.9,0.6,1.3c0.6,0.7,1.9,1.2,3.1,1.4L34.3,48.4z"/>
			<path class="st0" d="M42.7,39.7l3.9,2.7c0.3-0.3,0.4-0.6,0.6-0.9l-3.8-2.7C43.1,39.1,42.9,39.4,42.7,39.7z"/>
			<path class="st0" d="M41.9,41.5l2.9,2.1c0.1,0,0.2-0.1,0.3-0.1c0.1,0,0.3-0.1,0.4-0.2c0.1-0.1,0.3-0.2,0.4-0.3l-3.6-2.6
				C42.1,40.8,42,41.1,41.9,41.5z"/>
			<path class="st0" d="M42.4,32.7l5.3,3.7c0.1-0.1,0.2-0.2,0.2-0.3c0.2-0.2,0.3-0.4,0.4-0.6l-5.7-4C42.5,31.9,42.4,32.3,42.4,32.7z
				"/>
			<path class="st0" d="M40.6,42.8l2.8,2c0.1-0.3,0.4-0.6,0.7-0.9l-2.5-1.8C41.3,42.5,41,42.7,40.6,42.8z"/>
			<path class="st0" d="M42.4,21.3l5.7,4c0-0.1,0.1-0.1,0.1-0.2c0.1-0.3,0.1-0.7,0.1-1l-4.8-3.4C43.1,20.9,42.7,21.1,42.4,21.3z"/>
			<path class="st0" d="M41.6,22.5c0,0.2-0.1,0.3-0.1,0.5l5.7,4c0.2-0.3,0.4-0.6,0.6-0.9l-5.9-4.2C41.8,22,41.7,22.3,41.6,22.5z"/>
			<path class="st0" d="M43.4,30.2c-0.1,0.2-0.3,0.4-0.4,0.6l5.8,4.1c0.1-0.4,0.2-0.8,0.3-1.1l-5.5-3.8C43.5,30,43.4,30.1,43.4,30.2
				z"/>
			<path class="st0" d="M43.1,35.5l3.6,2.5c0.1-0.3,0.2-0.7,0.5-1l-4.7-3.3C42.6,34.3,42.8,34.9,43.1,35.5z"/>
			<path class="st0" d="M41.4,23.8c0,0.5,0.1,1.1,0.3,1.6l4.7,3.3c-0.1-0.3,0-0.6,0.3-1.1L41.4,23.8z"/>
			<path class="st0" d="M43.5,27.9c0.4,0.4,0.6,0.9,0.4,1.3l5,3.5c-0.1-0.4-0.3-0.9-0.5-1.4c-0.1-0.2-0.3-0.5-0.5-0.7l-5.1-3.6
				C43.1,27.4,43.3,27.6,43.5,27.9z"/>
			<path class="st0" d="M37.9,43.1c-0.1,0-0.1,0-0.2,0l5.4,3.8c0-0.2,0.1-0.4,0.1-0.7c0-0.2,0-0.4,0.1-0.6L39.5,43
				C39,43.1,38.4,43.1,37.9,43.1z"/>
			<path class="st0" d="M43.7,38.2l3.5,2.4c0-0.3-0.1-0.7-0.3-1.1c-0.1-0.2-0.1-0.4-0.2-0.6l-2.9-2.1C44,37.4,43.9,37.8,43.7,38.2z"
				/>
			<path class="st0" d="M48.1,23.1c-0.3-0.9-0.9-1.7-1.7-2.2c-0.5-0.3-1.2-0.4-1.9-0.3L48.1,23.1z"/>
			<path class="st0" d="M34.1,47.4l5.2,3.7c0.2,0,0.3-0.1,0.5-0.1c0.2-0.1,0.5-0.2,0.7-0.4l-6.2-4.4C34.2,46.6,34.1,47,34.1,47.4z"
				/>
			<path class="st0" d="M35.7,43.9l6.8,4.8c0.2-0.3,0.4-0.6,0.5-1l-6.3-4.4C36.3,43.4,36,43.6,35.7,43.9z"/>
			<path class="st0" d="M34.9,44.9c-0.1,0.2-0.2,0.3-0.3,0.5l6.6,4.7c0.3-0.2,0.6-0.5,0.8-0.8l-6.9-4.8C35,44.6,34.9,44.8,34.9,44.9
				z"/>
		</g>
		<g>
			<path class="st0" d="M27.4,22.7L32,26c0.2-0.4,0.3-0.7,0.3-1.1l-4.2-3C27.8,22.1,27.6,22.4,27.4,22.7z"/>
			<path class="st0" d="M25.7,14.7C25.7,14.7,25.7,14.7,25.7,14.7l6,4.3c0.3-0.2,0.5-0.5,0.8-0.8l-6.7-4.7
				C25.7,13.8,25.7,14.2,25.7,14.7z"/>
			<path class="st0" d="M26,12.6l7,4.9c0.2-0.3,0.4-0.6,0.6-0.9l-7-4.9C26.4,12,26.2,12.3,26,12.6z"/>
			<path class="st0" d="M27.3,11.2C27.3,11.2,27.3,11.2,27.3,11.2l6.6,4.7c0.1-0.4,0.1-0.9,0-1.3l-5.4-3.8
				C28.1,10.8,27.7,11,27.3,11.2z"/>
			<path class="st0" d="M26.4,17.5l4,2.8c0.1-0.1,0.2-0.3,0.3-0.4c0.1-0.1,0.3-0.3,0.4-0.4l-5.3-3.8C26,16.3,26.2,16.9,26.4,17.5z"
				/>
			<path class="st0" d="M27,23.5c-0.2,0.3-0.3,0.7-0.3,1.1l3.9,2.8c0.2-0.1,0.5-0.2,0.7-0.4c0.1-0.1,0.2-0.2,0.3-0.3L27,23.5
				C27,23.4,27,23.4,27,23.5z"/>
			<path class="st0" d="M31.4,11.3c-0.6-0.3-1.1-0.5-1.6-0.6l3.6,2.5c0,0,0-0.1-0.1-0.1C32.8,12.3,32.2,11.7,31.4,11.3z"/>
			<path class="st0" d="M28,19.6c0.6,0.7,0.8,1,0.5,1.6l3.5,2.5c0-0.1-0.1-0.2-0.2-0.4c-0.3-0.6-0.7-1.2-1.2-1.7
				c-0.1-0.1-0.2-0.3-0.3-0.4l-2.7-1.9C27.8,19.4,27.9,19.5,28,19.6z"/>
			<path class="st0" d="M27.8,27c0.5,0.4,1.2,0.6,1.8,0.5l-2.8-2C27,26.1,27.3,26.6,27.8,27z"/>
		</g>
	</g>
</g>
</svg>
