<?xml version="1.0" encoding="UTF-8"?>
<svg id="Layer_1" data-name="Layer 1" xmlns="http://www.w3.org/2000/svg" viewBox="0 0 800 800">
  <defs>
    <style>
      .cls-1 {
        fill: #4eb58c;
        stroke-width: 0px;
      }
    </style>
  </defs>
  <path class="cls-1" d="M778.12,234.29c-10.38-5.17-22.99-.95-28.16,9.43l-32.94,66.1c-37.18-45.52-93.29-72.73-153.15-72.73-23.59,0-47.68,8.46-71.61,25.15-65.81,45.89-154.25,45.89-220.06,0-23.93-16.68-48.02-25.14-71.6-25.14-48.02,0-93.95,17.4-129.69,48.51l-20.87-41.88c-5.17-10.38-17.78-14.6-28.16-9.43-10.38,5.18-14.6,17.78-9.43,28.16l152.22,305.46h470.66l152.22-305.46c5.17-10.38.95-22.98-9.43-28.16ZM609.34,525.91H190.66l-104.92-210.54c30.75-29.58,71.8-46.28,114.86-46.28,16.91,0,34.84,6.52,53.29,19.39,38.39,26.77,83.36,40.16,128.34,40.15,44.98,0,89.96-13.38,128.34-40.15,18.45-12.87,36.39-19.39,53.3-19.39,55.15,0,106.51,27.56,137.18,72.78l-91.71,184.04Z"/>
  <g>
    <path class="cls-1" d="M287.65,387.18c1.97-17.27,14.15-38.61,49.21-38.61,32.49,0,46.92,18.39,46.92,38.18,0,16.89-9.69,24.93-17.36,28.48v.61c9.11,3.35,22.82,12.05,22.82,33.83,0,20.29-12.3,44.29-52.62,44.29-37.57,0-50.36-22.68-51.79-41.25h29.67c1.91,9.59,8.52,17.88,22.98,17.88s21.08-9.07,21.08-21.43c0-13-6.64-20.83-23-20.83h-12.63v-23.51h11.11c14,0,19.65-4.64,19.65-16.39,0-9.64-5.73-16.12-17.82-16.12-14.23,0-17.64,7.93-19.17,14.87h-29.05Z"/>
    <path class="cls-1" d="M515.16,420.38c0,38.57-12.25,73.57-53.9,73.57s-53.88-33.84-53.88-72.7,14.12-72.69,54.52-72.69,53.26,31.99,53.26,71.82ZM438.83,420.91c0,25.79,2.94,48.74,22.8,48.74s21.91-21.46,21.91-49.08-3.29-47.7-21.62-47.7-23.09,17.66-23.09,48.04Z"/>
  </g>
</svg>