<?xml version="1.0" encoding="UTF-8"?>
<svg id="Layer_1" data-name="Layer 1" xmlns="http://www.w3.org/2000/svg" viewBox="0 0 800 800">
  <defs>
    <style>
      .cls-1 {
        fill: #4fb68b;
      }

      .cls-1, .cls-2 {
        stroke-width: 0px;
      }

      .cls-2 {
        fill: #ee203b;
      }
    </style>
  </defs>
  <path class="cls-1" d="M400,203.75c52.42,0,101.71,20.41,138.77,57.48,37.07,37.07,57.48,86.35,57.48,138.77s-20.41,101.71-57.48,138.77c-37.07,37.07-86.35,57.48-138.77,57.48s-101.71-20.41-138.77-57.48c-37.07-37.07-57.48-86.35-57.48-138.77s20.41-101.71,57.48-138.77c37.07-37.07,86.35-57.48,138.77-57.48M400,161.75c-131.58,0-238.25,106.67-238.25,238.25s106.67,238.25,238.25,238.25,238.25-106.67,238.25-238.25-106.67-238.25-238.25-238.25h0Z"/>
  <path class="cls-2" d="M629.46,606.84c6.25,6.25,6.25,16.38,0,22.63-3.12,3.12-7.21,4.68-11.31,4.68s-8.19-1.56-11.31-4.68l-206.84-206.84-206.84,206.84c-3.13,3.12-7.22,4.68-11.32,4.68s-8.19-1.56-11.31-4.68c-6.25-6.25-6.25-16.38,0-22.63l206.84-206.84-206.84-206.84c-6.25-6.25-6.25-16.38,0-22.63s16.38-6.25,22.63,0l206.84,206.84,206.84-206.84c6.25-6.25,16.38-6.25,22.62,0,6.25,6.25,6.25,16.38,0,22.63l-206.84,206.84,206.84,206.84Z"/>
</svg>