<?xml version="1.0" encoding="UTF-8"?>
<svg id="Layer_1" data-name="Layer 1" xmlns="http://www.w3.org/2000/svg" viewBox="0 0 800 800">
  <defs>
    <style>
      .cls-1 {
        fill: #4fb68b;
        stroke-width: 0px;
      }
    </style>
  </defs>
  <path class="cls-1" d="M400,483.27c20.71,0,37.5,16.79,37.5,37.5s-16.79,37.5-37.5,37.5-37.5-16.79-37.5-37.5,16.79-37.5,37.5-37.5h0ZM670.2,403.07c-.07-.29-.15-.58-.23-.87l-40.43-152.62H223.27c-11.6,0-21,9.4-21,21s9.4,21,21,21h373.95l25.3,95.51-327.67.78c-58.34.14-113.16,22.96-154.36,64.26-41.2,41.3-63.89,96.17-63.89,154.51v21h653.09l-59.49-224.58ZM294.95,429.88l338.69-.81,41.48,156.58H119.84c10.41-87.4,84.97-155.56,175.11-155.77Z"/>
</svg>