<?xml version="1.0" encoding="UTF-8"?>
<svg id="Layer_1" data-name="Layer 1" xmlns="http://www.w3.org/2000/svg" viewBox="0 0 800 800">
  <defs>
    <style>
      .cls-1 {
        fill: #4fb68b;
      }

      .cls-1, .cls-2 {
        stroke-width: 0px;
      }

      .cls-2 {
        fill: #ee203b;
      }
    </style>
  </defs>
  <path class="cls-1" d="M639.98,553.82H160.02l254.09-352.91,225.86,352.91ZM242.02,511.82h321.21l-151.16-236.19-170.05,236.19Z"/>
  <path class="cls-2" d="M630.77,606.84c6.25,6.25,6.25,16.38,0,22.63-3.12,3.12-7.21,4.68-11.31,4.68s-8.19-1.56-11.31-4.68l-206.84-206.84-206.84,206.84c-3.13,3.12-7.22,4.68-11.32,4.68s-8.19-1.56-11.31-4.68c-6.25-6.25-6.25-16.38,0-22.63l206.84-206.84-206.84-206.84c-6.25-6.25-6.25-16.38,0-22.63s16.38-6.25,22.63,0l206.84,206.84,206.84-206.84c6.25-6.25,16.38-6.25,22.62,0,6.25,6.25,6.25,16.38,0,22.63l-206.84,206.84,206.84,206.84Z"/>
</svg>