<?xml version="1.0" encoding="UTF-8"?>
<svg id="Layer_1" data-name="Layer 1" xmlns="http://www.w3.org/2000/svg" viewBox="0 0 800 800">
  <defs>
    <style>
      .cls-1 {
        fill: #4fb68b;
        stroke-width: 0px;
      }
    </style>
  </defs>
  <path class="cls-1" d="M145.75,145.74v508.51h508.5V145.74H145.75ZM622.25,177.74v136.26c-24.15-62.41-73.85-112.11-136.26-136.26h136.26ZM596.25,399.99c0,52.43-20.41,101.71-57.48,138.78-37.06,37.06-86.35,57.48-138.77,57.48s-101.71-20.42-138.77-57.48c-37.07-37.07-57.48-86.35-57.48-138.78s20.41-101.7,57.48-138.77c37.06-37.07,86.35-57.48,138.77-57.48s101.71,20.41,138.77,57.48c37.07,37.07,57.48,86.35,57.48,138.77ZM177.75,177.74h136.26c-62.41,24.15-112.11,73.85-136.26,136.26v-136.26ZM177.75,622.26v-136.27c24.15,62.42,73.85,112.12,136.26,136.27h-136.26ZM622.25,622.26h-136.26c62.41-24.15,112.11-73.85,136.26-136.27v136.27Z"/>
  <path class="cls-1" d="M400,362.5c-20.71,0-37.5,16.79-37.5,37.5s16.79,37.5,37.5,37.5,37.5-16.79,37.5-37.5-16.79-37.5-37.5-37.5h0Z"/>
</svg>