<?xml version="1.0" encoding="UTF-8"?>
<svg id="Layer_2" data-name="Layer 2" xmlns="http://www.w3.org/2000/svg" viewBox="0 0 200 160">
  <defs>
    <style>
      .cls-1 {
        fill: #0b1330;
        opacity: .52;
        stroke: #0b1330;
      }

      .cls-1, .cls-2, .cls-3, .cls-4, .cls-5, .cls-6, .cls-7, .cls-8 {
        stroke-miterlimit: 1.09;
      }

      .cls-1, .cls-2, .cls-3, .cls-4, .cls-8 {
        stroke-width: .01px;
      }

      .cls-1, .cls-2, .cls-3, .cls-8 {
        isolation: isolate;
      }

      .cls-2 {
        fill: #090b12;
        opacity: .27;
        stroke: #090b12;
      }

      .cls-3 {
        fill: #222861;
        opacity: .75;
        stroke: #222861;
      }

      .cls-9 {
        fill: none;
        stroke-width: 0px;
      }

      .cls-4, .cls-5 {
        fill: #2c459c;
        stroke: #2c459c;
      }

      .cls-5, .cls-6, .cls-7 {
        stroke-width: .01px;
      }

      .cls-6 {
        fill: #79b8e4;
        stroke: #79b8e4;
      }

      .cls-7 {
        fill: #4375ba;
        stroke: #4375ba;
      }

      .cls-8 {
        fill: #0d142a;
        opacity: .48;
        stroke: #0d142a;
      }
    </style>
  </defs>
  <g id="Layer_1-2" data-name="Layer 1">
    <g>
      <rect class="cls-9" width="200" height="160"/>
      <g>
        <g>
          <path class="cls-4" d="M149.21,98.64c.13-.54.67-.94,1.24-.91,1.1,0,2.19-.01,3.29,0,.63-.02,1.22.54,1.22,1.17.02,3.22-.01,6.43.01,9.64,1.6-1.44,3.67-2.27,5.79-2.47,2.4-.24,4.93.17,6.97,1.52,2.55,1.66,3.95,4.67,4.18,7.63.07,2.85.02,5.7.04,8.55-.01,2.07.02,4.15-.02,6.23-.16.52-.69.87-1.23.84-1.06,0-2.13.01-3.19,0-.57.02-1.11-.4-1.23-.95.01-3.7,0-7.41,0-11.11,0-.74.02-1.49-.05-2.23-.15-1.82-.83-3.74-2.36-4.85-1.24-.93-2.9-1.13-4.4-.88-1.17.21-2.27.83-3.02,1.75-1.05,1.29-1.45,2.99-1.46,4.62-.01,4.14,0,8.3-.01,12.44.01.61-.5,1.16-1.11,1.19-.85.04-1.69,0-2.55.01-.4,0-.79.02-1.18-.04-.45-.1-.82-.48-.91-.91v-31.24Z"/>
          <path class="cls-1" d="M149.13,99.14c.01-.16.04-.33.07-.5v31.24c-.11-.54-.06-1.07-.06-1.61-.01-9.71.01-19.42-.01-29.13Z"/>
          <path class="cls-4" d="M42.1,99.21c2.51-.28,5.09-.07,7.48.76,2.85.99,5.43,2.78,7.24,5.2.39.45.57,1.12.3,1.68-.32.73-1.16.96-1.78,1.38-.71.35-1.39,1.04-2.25.83-.67-.09-1-.73-1.41-1.19-1.6-1.77-3.89-2.84-6.25-3.08-1.88-.18-3.81.02-5.57.76-2.06.87-3.78,2.46-4.85,4.41-1.06,1.94-1.4,4.2-1.19,6.38.15,1.73.73,3.44,1.74,4.86,1.39,1.96,3.46,3.44,5.8,4.06,1.66.41,3.42.56,5.11.13,2.13-.51,4.17-1.57,5.68-3.19,1.07-1.15,1.8-2.61,2.11-4.14.01-.06.04-.19.05-.26-2.97.01-5.95,0-8.91.01-.65-.12-1.21-.68-1.24-1.35-.04-.61,0-1.22-.01-1.83,0-.44-.05-.93.21-1.32.29-.5.87-.77,1.43-.73h12.21c1.08-.04,2.05.96,1.96,2.05-.05,1.54-.01,3.11-.39,4.61-.45,1.91-1.22,3.75-2.32,5.39-.91,1.38-2.14,2.51-3.5,3.45-1.77,1.21-3.74,2.1-5.81,2.61-2.78.71-5.73.54-8.48-.21-3.79-1.04-7.09-3.61-9.15-6.93-2.22-3.56-2.77-7.99-1.91-12.05.83-4,3.4-7.53,6.77-9.8,2.06-1.38,4.47-2.21,6.95-2.47Z"/>
          <path class="cls-4" d="M77.62,99.17c2.22-.21,4.5-.05,6.63.62,3.24,1,6.2,3.08,8.08,5.93.37.54.19,1.36-.38,1.69-.8.49-1.64.95-2.46,1.44-.37.21-.74.48-1.18.41-.41-.01-.74-.3-.96-.63-1.29-1.93-3.4-3.23-5.64-3.7-1.83-.37-3.75-.28-5.54.22-1.99.56-3.75,1.79-4.98,3.42-1.18,1.52-1.85,3.4-2.01,5.31-.21,2.18.11,4.46,1.16,6.41,1.01,1.89,2.63,3.45,4.59,4.3,1.83.8,3.87,1.01,5.84.82,2.38-.26,4.68-1.4,6.19-3.27.29-.35.49-.8.88-1.06.39-.24.91-.21,1.3.04.93.54,1.86,1.06,2.79,1.6.48.26.72.87.57,1.39-.15.4-.44.73-.68,1.07-2.84,3.78-7.57,5.98-12.27,5.92-3.67.06-7.41-1.07-10.27-3.41-1.67-1.35-3.08-3.02-4.09-4.92-1.06-1.99-1.63-4.2-1.77-6.46-.16-2.42.13-4.91,1-7.2,1.27-3.31,3.74-6.15,6.81-7.93,1.95-1.13,4.17-1.79,6.41-2.01Z"/>
          <path class="cls-4" d="M104.58,105.83c2.3-.46,4.79-.33,6.91.73,1.58.78,2.92,2.13,3.5,3.83.07-1.1-.01-2.21.04-3.31.01-.6.58-1.1,1.18-1.1,1.15-.01,2.28-.01,3.42,0,.65-.01,1.22.56,1.19,1.22v21.69c0,.32.01.65-.02.97-.09.56-.62.97-1.18.97-.94.01-1.86-.01-2.8,0-.32,0-.63.02-.93-.05-.48-.13-.84-.56-.87-1.05-.04-.74.01-1.49-.02-2.22-.63.56-1.22,1.17-1.91,1.66-1.73,1.29-3.86,2.05-6.02,2.05-2.38.02-4.75-.72-6.66-2.13-1.86-1.35-3.27-3.29-4.09-5.42-1-2.55-1.21-5.36-.76-8.04.43-2.5,1.56-4.91,3.35-6.73,1.54-1.56,3.55-2.63,5.68-3.07M107,110.79c-1.74.26-3.34,1.27-4.33,2.73-1.8,2.62-1.88,6.26-.35,9.03.83,1.56,2.27,2.84,4,3.3,2.21.63,4.73.02,6.38-1.57,1.45-1.34,2.19-3.31,2.29-5.26.15-2.25-.46-4.68-2.1-6.31-1.5-1.56-3.78-2.25-5.9-1.91Z"/>
          <path class="cls-4" d="M133.43,105.64c2.56-.23,5.26.1,7.47,1.49,1.97,1.22,3.28,3.38,3.56,5.67.07.67-.51,1.33-1.18,1.3-1.06.01-2.13,0-3.18.01-.37.01-.76-.04-1.02-.29-.38-.3-.4-.82-.6-1.23-.37-.85-1.15-1.47-2.02-1.75-.93-.29-1.91-.3-2.86-.18-.78.11-1.58.35-2.12.96-.58.65-.61,1.74-.04,2.4.6.69,1.49,1.04,2.33,1.34,2.4.8,4.93,1.23,7.2,2.41,1.32.68,2.53,1.68,3.2,3.02,1.06,2.11.88,4.76-.46,6.7-1.13,1.68-2.97,2.74-4.9,3.27-2.35.63-4.89.62-7.23-.04-1.79-.51-3.48-1.46-4.74-2.84-.99-1.07-1.69-2.42-1.93-3.87-.12-.68.48-1.36,1.17-1.36,1.18-.01,2.36,0,3.53,0,.56-.02,1.08.35,1.23.89.18.62.55,1.19,1.05,1.61,1.01.85,2.39,1.16,3.69,1.07,1.01-.05,2.07-.26,2.86-.93.68-.57.94-1.64.45-2.41-.43-.65-1.18-.99-1.89-1.28-2.05-.77-4.22-1.12-6.26-1.89-1.5-.55-2.99-1.3-4.06-2.52-1.56-1.75-1.89-4.4-1.07-6.56.68-1.78,2.18-3.13,3.87-3.92,1.23-.6,2.58-.93,3.94-1.06Z"/>
          <path class="cls-3" d="M171.91,115.21c.17,1.1.05,2.21.09,3.31v10.11c0,.45.05.91-.07,1.35.05-2.07.01-4.15.02-6.23-.01-2.85.04-5.7-.04-8.55Z"/>
          <path class="cls-8" d="M166.21,116.54c.07.74.05,1.49.05,2.23,0,3.7.01,7.41,0,11.11-.12-.61-.05-1.23-.06-1.85,0-3.83-.01-7.65.01-11.49Z"/>
          <path class="cls-2" d="M45.39,117.81c2.96-.01,5.93,0,8.91-.01-.01.06-.04.19-.05.26-.24-.13-.52-.18-.79-.18-2.47.02-4.96-.01-7.43.02-.22,0-.43-.05-.63-.09Z"/>
        </g>
        <g>
          <path class="cls-7" d="M84.86,30.28c3.65-1.19,7.54-1.69,11.38-1.44,5.63.31,11.13,2.3,15.72,5.57.49.36,1.03.7,1.46,1.16.73.83,1.02,2.01.76,3.09-.26,1.16-1.18,2.15-2.31,2.5-1.11.35-2.37.12-3.26-.63-3.42-2.63-7.58-4.29-11.88-4.7-1.57-.17-3.17-.17-4.74,0-4.53.45-8.91,2.27-12.43,5.17-3.97,3.25-6.87,7.82-8.01,12.82-1.05,4.54-.73,9.4.96,13.75,1.78,4.63,5.08,8.63,9.24,11.31,3.11,1.99,6.71,3.23,10.38,3.58,1.43.17,2.88.17,4.29.01,4.44-.38,8.73-2.08,12.26-4.8.89-.7,2.15-.9,3.23-.54,1.48.51,2.55,2.1,2.36,3.67-.09.92-.57,1.79-1.3,2.34-2.79,2.18-5.97,3.86-9.34,4.93-4.35,1.4-9.04,1.76-13.57,1.14-5.02-.7-9.85-2.71-13.9-5.76-3.93-2.94-7.13-6.86-9.24-11.29-2.07-4.35-3.07-9.21-2.9-14.03.16-5.92,2.13-11.78,5.59-16.59,3.73-5.24,9.13-9.27,15.25-11.27Z"/>
          <path class="cls-6" d="M127.45,38.55c1.51-.45,3.29.26,4.02,1.69,3.49,6.83,5.02,14.63,4.4,22.27-.44,5.44-1.94,10.81-4.45,15.66-.92,1.73-3.38,2.29-4.96,1.15-1.47-.95-1.95-3.06-1.08-4.58,4.86-9.55,4.91-21.38.1-30.96-.44-.79-.67-1.72-.45-2.61.25-1.24,1.22-2.29,2.43-2.62Z"/>
          <path class="cls-5" d="M84.4,42.64c6.17-3.73,14.51-3.62,20.51.44,1.48,1.09,1.79,3.42.64,4.86-1.03,1.41-3.17,1.83-4.64.89-2.33-1.48-5.15-2.13-7.89-1.8-2.74.29-5.36,1.56-7.28,3.52-1.92,1.91-3.17,4.47-3.48,7.16-.28,2.18.09,4.44.99,6.45,1.19,2.65,3.36,4.85,6.01,6.07,2.71,1.28,5.88,1.48,8.73.6,3.81-1.16,6.97-4.32,8.06-8.15-2.74.01-5.47,0-8.21,0-1.31,0-2.58-.82-3.11-1.99-.67-1.35-.32-3.11.82-4.1.58-.52,1.35-.87,2.14-.9,4.13-.03,8.25-.01,12.39-.01,1.35-.04,2.66.8,3.2,2.04.47.96.32,2.05.26,3.09-.36,4.48-2.39,8.81-5.59,11.98-3.07,3.09-7.22,5.08-11.56,5.52-4.26.47-8.67-.57-12.3-2.88-3.65-2.31-6.51-5.91-7.9-10.01-1.43-4.15-1.35-8.79.13-12.91,1.46-4.08,4.37-7.6,8.08-9.82Z"/>
          <path class="cls-6" d="M117.99,44.54c1.5-.39,3.2.38,3.9,1.76,3.78,8.01,3.78,17.7,0,25.7-.48.95-1.44,1.64-2.5,1.82-1.24.22-2.56-.31-3.33-1.3-.8-1.03-.95-2.52-.36-3.68,2.82-6.13,2.78-13.48-.07-19.59-.86-1.88.36-4.28,2.37-4.72Z"/>
        </g>
      </g>
    </g>
  </g>
</svg>