<?xml version="1.0" encoding="UTF-8"?>
<svg id="Layer_2" data-name="Layer 2" xmlns="http://www.w3.org/2000/svg" viewBox="0 0 200 160">
  <defs>
    <style>
      .cls-1 {
        fill: #08b04b;
        fill-rule: evenodd;
      }

      .cls-1, .cls-2 {
        stroke-width: 0px;
      }

      .cls-2 {
        fill: none;
      }
    </style>
  </defs>
  <g id="Layer_1-2" data-name="Layer 1">
    <g>
      <rect class="cls-2" width="200" height="160"/>
      <g id="OIPjWg">
        <g>
          <path class="cls-1" d="M171.99,54.81c-.07.54-.14,1.08-.2,1.62-.49,3.84-2.12,7.15-4.8,9.93-2.72,2.84-6.03,4.61-9.91,5.26-6.23,1.04-13.44-1.51-17.09-7.23-.57-.89-.93-1.89-1.39-2.85-.12-.25-.07-.45.12-.67.67-.78,1.32-1.59,1.97-2.39.07-.08.1-.18.2-.37.25.67.4,1.2.61,1.69,2.07,4.66,5.62,7.48,10.64,8.34,7.27,1.24,14.21-3.65,15.87-10.59.26-1.08.37-2.22.42-3.33.05-1.45.02-2.9-.07-4.36-.16-2.76-1.17-5.22-2.85-7.4-2.45-3.18-5.67-5.11-9.67-5.58-3.97-.46-7.49.74-10.56,3.27-3.2,2.63-5.96,5.68-8.62,8.85-1.23,1.47-2.42,2.99-3.63,4.48-.07.09-.16.17-.29.31-.01-.18-.02-.29-.02-.39,0-1.47,0-2.94,0-4.4,0-.2.06-.44.18-.6,2.12-2.75,4.32-5.43,6.79-7.87,1.83-1.81,3.81-3.43,5.98-4.81,1.99-1.27,4.19-1.98,6.52-2.29,9.26-1.21,17.32,5.33,19.22,13.36.22.93.3,1.9.44,2.86.03.21.07.42.12.63,0,1.52,0,3.02,0,4.52Z"/>
          <path class="cls-1" d="M125.15,130c.27.21.46.35.65.51,2.79,2.26,5.96,3.7,9.52,4.16,2.37.31,4.74.26,7-.68,2.52-1.05,3.78-3.04,4.01-5.68.12-1.4.07-2.81.1-4.21,0-.12-.03-.23-.04-.4-.1.05-.16.06-.19.1-1.59,1.81-3.66,2.75-5.95,3.2-3.73.74-7.34.34-10.72-1.45-3.61-1.92-5.7-5.04-6.7-8.94-.4-1.53-.57-3.09-.57-4.68v-20.81q0-.61.62-.61c2.39,0,4.78.01,7.17-.01.48,0,.59.14.59.61-.01,7.05-.05,14.1.01,21.14.03,3.24,1.95,6.52,6.03,7.23,2.36.41,4.61.03,6.55-1.49,1.47-1.15,2.2-2.73,2.44-4.54.1-.71.1-1.43.1-2.15,0-6.72,0-13.44,0-20.16q0-.63.64-.63c2.33,0,4.66,0,6.99,0,.35,0,.48.1.48.48-.01,12.44.03,24.87-.03,37.31-.01,3.4-1.02,6.55-3.35,9.16-1.94,2.18-4.42,3.47-7.21,4.21-1.65.44-3.33.63-5.04.71-4.73.22-8.96-1.1-12.66-4.06-.33-.27-.48-.55-.48-.99.02-2.3,0-4.59.01-6.89-.02-.09,0-.2.01-.42Z"/>
          <path class="cls-1" d="M54.5,127.52h-.56c-2.3,0-4.59-.01-6.89.01-.49,0-.59-.15-.59-.61.01-9.8,0-19.59,0-29.39v-14.16c0-.61,0-.62.61-.62,5.71,0,11.41-.1,17.11.04,4.12.1,7.89,1.35,10.88,4.38,1.87,1.9,2.98,4.23,3.48,6.82.63,3.3.57,6.59-.55,9.79-1.68,4.81-5.15,7.64-10,8.91-1.64.43-3.31.6-5,.6-2.62,0-5.25,0-7.87,0-.61,0-.61,0-.61.62v12.99c0,.19,0,.37,0,.61ZM59.08,105.83c1.11,0,2.22.03,3.33-.01.95-.04,1.91-.09,2.83-.28,2.53-.53,4.37-1.94,5.21-4.44.68-2,.69-4.05.1-6.07-.57-1.96-1.85-3.31-3.76-4.08-1.19-.48-2.44-.66-3.7-.68-2.71-.03-5.43,0-8.15-.01-.35,0-.45.13-.45.47,0,4.87.01,9.74,0,14.61,0,.4.13.5.51.5,1.37-.02,2.73,0,4.08,0Z"/>
          <path class="cls-1" d="M109.13,123.71c-1.84,1.92-4.06,2.99-6.57,3.48-1.87.37-3.75.35-5.63.15-2.29-.24-4.46-.85-6.49-1.96-3.75-2.07-6.04-5.27-7.19-9.35-.5-1.79-.74-3.63-.74-5.49,0-1.79-.05-3.6.1-5.38.59-6.93,4.51-12.7,12.15-14.51,3.99-.95,8-.87,11.89.48,5.25,1.83,8.45,5.56,9.81,10.92.4,1.57.58,3.18.58,4.81,0,6.52,0,13.03,0,19.54q0,.66-.66.66c-2.24,0-4.46,0-6.7,0-.41,0-.58-.09-.56-.55.04-.93.01-1.87.01-2.82ZM109.21,108.91c-.1-1.32-.07-2.66-.3-3.95-.57-3.15-2.34-5.4-5.38-6.54-1.9-.72-3.86-.77-5.85-.42-3.69.65-6.53,3.54-7.08,7.23-.31,2.07-.3,4.14-.08,6.21.36,3.44,2.11,5.98,5.27,7.47,1.96.93,4.04,1.01,6.18.72,3.36-.46,5.88-2.61,6.79-5.88.44-1.61.39-3.22.46-4.85Z"/>
          <path class="cls-1" d="M64.7,50.18h-14.7c-.01-.2-.03-.37-.03-.53v-2.34q0-.64.67-.64h11.91c1.72,0,3.44.01,5.15,0,.41,0,.54.12.53.52-.01,6.11,0,12.21-.02,18.33,0,.25-.12.56-.28.75-1.78,2.09-4.04,3.52-6.51,4.63-2.34,1.04-4.79,1.64-7.34,1.92-4.33.47-8.55.07-12.54-1.77-6.98-3.24-11.36-8.64-12.94-16.17-.93-4.43-.85-8.88.78-13.18,2.14-5.65,6.02-9.78,11.31-12.62,2.8-1.51,5.8-2.41,8.97-2.76,2.32-.26,4.64-.16,6.96.01,2.28.18,4.51.6,6.65,1.4.44.16.63.36.61.87-.05,1.07-.01,2.15-.01,3.29-.44-.22-.8-.42-1.17-.59-1.95-.94-4.01-1.45-6.16-1.62-1.55-.12-3.11-.2-4.67-.18-4.65.06-8.81,1.58-12.49,4.4-3.49,2.67-5.92,6.09-7.14,10.33-.62,2.15-.73,4.35-.64,6.58.12,2.84.72,5.53,1.99,8.06,2.79,5.53,7.23,8.96,13.3,10.25,2.45.52,4.93.47,7.4.18,2.92-.33,5.69-1.11,8.19-2.7.68-.44,1.32-.95,1.92-1.49.18-.16.32-.48.32-.72.02-4.56.01-9.13.01-13.69.01-.16-.01-.31-.03-.5Z"/>
          <path class="cls-1" d="M117.97,67.25c0,1.14.01,2.21-.01,3.29,0,.12-.21.31-.35.35-1.09.3-2.18.71-3.29.82-4.58.49-8.72-.72-12.37-3.52-3.84-2.95-6.2-6.83-6.82-11.64-.27-2.04-.18-4.14-.14-6.22.08-4.16,1.6-7.78,4.31-10.91,2.71-3.11,6.08-5.13,10.15-5.83,5.51-.95,10.44.42,14.67,4.08,3.27,2.83,5.23,6.43,5.94,10.7.13.81.2,1.64.2,2.47.01,6.78,0,13.56,0,20.34v.63h-3.51v-.67c0-6.78.05-13.56-.01-20.34-.06-7.13-5.21-12.58-11.53-13.76-7.64-1.42-14.99,3.8-16.51,11.27-.15.74-.25,1.51-.25,2.27-.03,2-.18,4,.22,5.98,1.05,5.21,4.09,8.81,8.97,10.82,3.24,1.34,6.54,1.23,9.82.05.16-.05.31-.11.52-.18Z"/>
          <path class="cls-1" d="M62,52.91v.5c0,3.25,0,6.5,0,9.75,0,.35-.11.58-.38.79-1.52,1.19-3.29,1.83-5.14,2.25-2.09.47-4.23.7-6.37.56-6.28-.42-10.93-3.46-13.93-8.96-1.32-2.41-1.85-5.03-1.89-7.78-.05-2.66.29-5.23,1.46-7.64,2.14-4.43,5.6-7.39,10.17-9.09,2.75-1.03,5.6-1.26,8.51-1.08,2.47.16,4.89.53,7.2,1.44.65.25,1.29.56,1.92.87.14.07.29.27.29.4.02,1.25.01,2.49.01,3.84-.19-.13-.33-.21-.46-.31-1.93-1.46-4.13-2.24-6.51-2.5-1.6-.17-3.21-.33-4.81-.27-5.62.24-10.02,2.67-12.86,7.63-.98,1.72-1.4,3.61-1.44,5.6-.05,2.3.18,4.55,1.18,6.66,1.98,4.19,5.23,6.79,9.83,7.51,3.24.51,6.43.05,9.52-1.06.31-.12.43-.29.43-.62-.01-1.47-.02-2.94,0-4.4,0-.46-.12-.62-.61-.62-2.55.02-5.09,0-7.64.02-.42,0-.57-.1-.55-.55.03-.97.01-1.93.01-2.94,4.02,0,8,0,12.04,0Z"/>
          <path class="cls-1" d="M145.83,52.15c.2.92.33,1.7.55,2.45.59,2.08,1.62,3.9,3.18,5.43,3.27,3.22,7.85,2.32,10.4-.28,1.41-1.44,2.19-3.18,2.22-5.2.03-1.53.1-3.07-.03-4.58-.3-3.27-2.77-5.99-5.97-6.72-2.82-.64-5.28.14-7.4,2.04-2.82,2.54-5.26,5.43-7.7,8.32-2.77,3.29-5.45,6.64-8.16,9.97-.03.03-.05.08-.16.1,0-.12-.03-.25-.03-.37,0-1.51-.01-3.03.01-4.55,0-.26.1-.56.25-.76,2.51-3.34,5.23-6.5,8.06-9.56,1.54-1.68,3.09-3.35,4.72-4.95,1.85-1.8,3.99-3.18,6.54-3.74,3.05-.65,5.86.04,8.39,1.82,2.6,1.83,4.25,4.31,4.84,7.46.1.55.14,1.12.14,1.68-.01,1.68.06,3.38-.12,5.05-.48,4.41-3.8,8.18-8.15,9.42-4.76,1.36-9.6-.56-12.41-4.89-.85-1.32-1.47-2.75-1.83-4.27-.05-.22.02-.53.16-.71.74-.95,1.51-1.87,2.27-2.8.07-.09.12-.19.22-.35Z"/>
          <path class="cls-1" d="M117.97,60.39c0,1.21.01,2.33-.01,3.45,0,.17-.2.37-.35.48-.93.63-2,.95-3.09,1.12-4.79.74-9.32-1.4-11.78-5.56-1.04-1.75-1.58-3.65-1.57-5.7,0-1,0-2,0-3-.03-3.79,1.51-6.84,4.43-9.18,6.52-5.23,16.59-1.84,18.21,6.73.14.78.2,1.58.21,2.37.01,6.7,0,13.4,0,20.1q0,.63-.64.63c-.78,0-1.56-.02-2.34,0-.4.01-.5-.14-.5-.51.01-1.8,0-3.59,0-5.39v-14.67c0-1.74-.37-3.38-1.39-4.82-1.6-2.26-3.79-3.37-6.57-3.42-3.26-.05-6.71,2.11-7.65,5.91-.15.61-.22,1.26-.24,1.89-.04,1.1-.01,2.22-.01,3.33,0,4,2.79,7.29,6.76,7.86,2.17.31,4.22-.15,6.09-1.32.12-.09.25-.18.46-.31Z"/>
          <path class="cls-1" d="M98.87,35.67c-.89.96-1.66,1.81-2.43,2.64-.91-.34-1.78-.79-2.71-1-5.56-1.26-10.51-.2-14.51,4.07-1.79,1.91-2.77,4.25-3.16,6.82-.18,1.21-.25,2.45-.25,3.68-.03,6.43-.01,12.87-.01,19.3q0,.66-.66.66c-.8,0-1.6-.01-2.39,0-.33,0-.46-.12-.43-.43,0-.07,0-.16,0-.23,0-6.7,0-13.4,0-20.1,0-3.86.95-7.44,3.19-10.62,2.65-3.76,6.31-5.96,10.8-6.81,3.49-.66,6.93-.44,10.24.87.78.3,1.5.74,2.31,1.15Z"/>
          <path class="cls-1" d="M94.91,40.57c-.53,1.06-1.03,2.05-1.52,3.03-.7-.16-1.38-.4-2.09-.48-3.34-.4-6.57.65-8.31,3.87-.63,1.17-.93,2.45-.93,3.78,0,6.8,0,13.59,0,20.39v.65h-3.48c0-.16-.03-.33-.03-.49,0-6.9-.06-13.81.02-20.71.06-5.57,3.9-9.91,9.13-10.85,2.09-.37,4.16-.25,6.19.39.35.1.67.29,1.02.44Z"/>
          <path class="cls-1" d="M136.43,17.64h3.45c0,.19.03.35.03.52,0,5.97,0,11.94,0,17.91,0,.31-.1.5-.31.73-.94.95-1.85,1.94-2.77,2.92-.12.12-.22.25-.39.44,0-7.55,0-15,0-22.51Z"/>
          <path class="cls-1" d="M142.65,34.91v-16.67q0-.63.65-.63h2.15c.67,0,.67,0,.67.7v3.09c0,3.54,0,7.1,0,10.64,0,.37-.11.58-.44.78-.9.57-1.76,1.19-2.63,1.79-.11.08-.22.16-.42.29Z"/>
        </g>
      </g>
    </g>
  </g>
</svg>