<?xml version="1.0" encoding="UTF-8"?>
<svg id="Layer_2" data-name="Layer 2" xmlns="http://www.w3.org/2000/svg" viewBox="0 0 200 160">
  <defs>
    <style>
      .cls-1 {
        fill: #003473;
      }

      .cls-1, .cls-2, .cls-3, .cls-4, .cls-5 {
        stroke-width: 0px;
      }

      .cls-2 {
        fill: none;
      }

      .cls-3 {
        fill: #fcb131;
      }

      .cls-4 {
        fill: #ed1c2e;
      }

      .cls-5 {
        fill: #fff;
      }
    </style>
  </defs>
  <g id="Layer_1-2" data-name="Layer 1">
    <g>
      <rect class="cls-2" width="200" height="160"/>
      <g>
        <g>
          <g>
            <path class="cls-4" d="M114.16,80c0,23.79-19.29,43.08-43.08,43.08s-43.08-19.29-43.08-43.08,19.29-43.08,43.08-43.08,43.08,19.29,43.08,43.08Z"/>
            <path class="cls-3" d="M128.92,36.92c-11.13,0-21.28,4.22-28.92,11.15-1.55,1.41-3.01,2.94-4.35,4.56h8.7c1.19,1.45,2.29,2.97,3.29,4.56h-15.27c-.91,1.47-1.75,2.99-2.48,4.56h20.24c.69,1.48,1.3,3,1.82,4.56h-23.88c-.5,1.49-.92,3.01-1.25,4.56h26.39c.63,2.94.97,5.99.97,9.12,0,4.78-.78,9.39-2.22,13.69h-23.88c.52,1.56,1.13,3.08,1.82,4.56h20.24c-.74,1.57-1.57,3.1-2.48,4.56h-15.27c1,1.59,2.09,3.11,3.29,4.56h8.7c-1.34,1.62-2.79,3.15-4.35,4.56,7.65,6.93,17.79,11.15,28.92,11.15,23.79,0,43.08-19.29,43.08-43.08s-19.29-43.08-43.08-43.08Z"/>
          </g>
          <path class="cls-3" d="M166.26,104.01c0-.77.62-1.39,1.39-1.39s1.39.62,1.39,1.39-.62,1.39-1.39,1.39-1.39-.62-1.39-1.39ZM167.65,105.07c.58,0,1.06-.47,1.06-1.06s-.47-1.06-1.06-1.06-1.06.47-1.06,1.06.47,1.06,1.06,1.06ZM167.46,104.62h-.29v-1.22h.52c.11,0,.22,0,.31.06.1.07.15.19.15.31,0,.14-.08.27-.21.32l.23.54h-.32l-.19-.48h-.21v.48ZM167.46,103.93h.16c.06,0,.12,0,.17-.02.05-.03.07-.09.07-.14,0-.05-.03-.1-.07-.12-.05-.03-.13-.02-.18-.02h-.15v.31Z"/>
        </g>
        <g>
          <g>
            <path class="cls-1" d="M61.02,84.72c-.49-.06-.71-.07-1.04-.07-2.65,0-3.99.91-3.99,2.71,0,1.11.65,1.81,1.68,1.81,1.91,0,3.28-1.81,3.36-4.44ZM64.42,92.63h-3.88l.09-1.84c-1.18,1.45-2.76,2.15-4.9,2.15-2.53,0-4.27-1.98-4.27-4.85,0-4.33,3.02-6.85,8.21-6.85.53,0,1.21.05,1.91.14.14-.59.18-.84.18-1.15,0-1.18-.81-1.62-3-1.62-2.29-.02-4.18.55-4.95.8.05-.29.65-4,.65-4,2.33-.69,3.87-.94,5.6-.94,4.02,0,6.14,1.8,6.14,5.21,0,.91-.14,2.04-.38,3.52-.41,2.57-1.28,8.09-1.4,9.44Z"/>
            <polygon class="cls-1" points="49.5 92.63 44.83 92.63 47.51 75.84 41.52 92.63 38.34 92.63 37.94 75.93 35.13 92.63 30.75 92.63 34.41 70.78 41.13 70.78 41.54 83.01 45.64 70.78 53.12 70.78 49.5 92.63"/>
            <path class="cls-1" d="M134.7,84.72c-.49-.06-.71-.07-1.04-.07-2.65,0-3.99.91-3.99,2.71,0,1.11.65,1.81,1.68,1.81,1.9,0,3.28-1.81,3.36-4.44ZM138.1,92.63h-3.87l.09-1.84c-1.18,1.45-2.76,2.15-4.9,2.15-2.54,0-4.27-1.98-4.27-4.85,0-4.33,3.02-6.85,8.21-6.85.53,0,1.21.05,1.91.14.14-.59.18-.84.18-1.15,0-1.18-.81-1.62-3-1.62-2.29-.02-4.18.55-4.95.8.05-.29.65-4,.65-4,2.33-.69,3.87-.94,5.59-.94,4.02,0,6.14,1.8,6.14,5.21,0,.91-.14,2.04-.38,3.52-.4,2.57-1.28,8.09-1.39,9.44Z"/>
            <path class="cls-1" d="M85.21,92.36c-1.28.4-2.28.58-3.36.58-2.39,0-3.7-1.37-3.7-3.9-.03-.79.34-2.85.64-4.74.27-1.66,2.03-12.13,2.03-12.13h4.65l-.54,2.69h2.81l-.63,4.27h-2.82c-.54,3.38-1.31,7.59-1.32,8.15,0,.92.49,1.32,1.6,1.32.53,0,.95-.05,1.26-.17l-.62,3.93Z"/>
            <path class="cls-1" d="M99.46,92.22c-1.6.49-3.14.73-4.77.72-5.21,0-7.92-2.72-7.92-7.93,0-6.07,3.45-10.55,8.14-10.55,3.83,0,6.28,2.5,6.28,6.43,0,1.3-.17,2.58-.57,4.37h-9.26c-.31,2.58,1.34,3.65,4.04,3.65,1.66,0,3.16-.34,4.83-1.12l-.77,4.42ZM96.85,81.68c.03-.37.49-3.17-2.16-3.17-1.48,0-2.54,1.13-2.97,3.17h5.13Z"/>
            <path class="cls-1" d="M67.23,80.48c0,2.25,1.09,3.8,3.56,4.96,1.89.89,2.19,1.15,2.19,1.96,0,1.11-.84,1.61-2.69,1.61-1.4,0-2.69-.22-4.19-.7,0,0-.61,3.92-.64,4.11,1.06.23,2.01.45,4.87.53,4.93,0,7.21-1.88,7.21-5.94,0-2.44-.95-3.87-3.3-4.95-1.96-.9-2.19-1.1-2.19-1.93,0-.96.78-1.45,2.29-1.45.92,0,2.17.1,3.36.27l.66-4.12c-1.21-.19-3.05-.35-4.12-.35-5.23,0-7.04,2.73-7.03,6.02Z"/>
            <path class="cls-1" d="M122.21,74.93c1.3,0,2.51.34,4.18,1.18l.77-4.74c-.69-.27-3.1-1.85-5.14-1.85-3.13,0-5.78,1.55-7.64,4.12-2.71-.9-3.83.92-5.2,2.73l-1.21.28c.09-.6.18-1.19.15-1.79h-4.3c-.59,5.5-1.62,11.07-2.44,16.58l-.21,1.2h4.68c.78-5.07,1.21-8.32,1.47-10.52l1.76-.98c.26-.98,1.09-1.31,2.74-1.27-.21,1.16-.33,2.38-.33,3.64,0,5.81,3.14,9.43,8.17,9.43,1.3,0,2.41-.17,4.13-.64l.82-4.98c-1.55.76-2.82,1.12-3.97,1.12-2.72,0-4.36-2.01-4.36-5.32,0-4.81,2.45-8.18,5.94-8.18Z"/>
            <path class="cls-1" d="M161.8,70.78l-1.04,6.31c-1.28-1.68-2.65-2.9-4.46-2.9-2.36,0-4.51,1.79-5.91,4.42-1.96-.41-3.98-1.1-3.98-1.1v.02c.15-1.47.22-2.37.2-2.68h-4.3c-.58,5.5-1.62,11.07-2.44,16.58l-.21,1.2h4.68c.63-4.1,1.12-7.51,1.47-10.21,1.6-1.45,2.4-2.7,4.01-2.62-.71,1.73-1.13,3.72-1.13,5.77,0,4.44,2.25,7.37,5.65,7.37,1.71,0,3.03-.59,4.31-1.96l-.22,1.65h4.43l3.56-21.85h-4.61ZM155.96,88.53c-1.59,0-2.4-1.18-2.4-3.5,0-3.49,1.51-5.97,3.63-5.97,1.61,0,2.48,1.22,2.48,3.48,0,3.52-1.53,5.99-3.71,5.99Z"/>
          </g>
          <g>
            <polygon class="cls-5" points="50.85 91.34 46.17 91.34 48.85 74.54 42.87 91.34 39.68 91.34 39.29 74.64 36.47 91.34 32.09 91.34 35.75 69.49 42.48 69.49 42.67 83.01 47.2 69.49 54.47 69.49 50.85 91.34"/>
            <path class="cls-5" d="M62.37,83.42c-.49-.06-.71-.07-1.04-.07-2.65,0-3.99.91-3.99,2.7,0,1.11.66,1.81,1.68,1.81,1.91,0,3.28-1.81,3.36-4.44ZM65.77,91.34h-3.87l.09-1.84c-1.18,1.45-2.76,2.15-4.9,2.15-2.54,0-4.27-1.98-4.27-4.86,0-4.33,3.02-6.85,8.21-6.85.53,0,1.21.05,1.91.14.14-.59.18-.84.18-1.16,0-1.18-.81-1.61-3-1.61-2.29-.03-4.18.54-4.95.8.05-.29.65-4,.65-4,2.33-.68,3.87-.94,5.6-.94,4.02,0,6.14,1.8,6.14,5.21,0,.91-.14,2.04-.38,3.52-.41,2.57-1.28,8.09-1.4,9.44Z"/>
            <path class="cls-5" d="M128.5,70.08l-.77,4.74c-1.67-.84-2.88-1.18-4.18-1.18-3.49,0-5.94,3.37-5.94,8.19,0,3.32,1.65,5.32,4.37,5.32,1.15,0,2.42-.36,3.97-1.12l-.82,4.98c-1.72.47-2.84.64-4.13.64-5.04,0-8.17-3.62-8.17-9.43,0-7.81,4.34-13.27,10.53-13.27,2.04,0,4.46.87,5.14,1.14Z"/>
            <path class="cls-5" d="M136.04,83.42c-.49-.06-.71-.07-1.04-.07-2.65,0-3.99.91-3.99,2.7,0,1.11.65,1.81,1.68,1.81,1.9,0,3.28-1.81,3.36-4.44ZM139.45,91.34h-3.87l.09-1.84c-1.18,1.45-2.76,2.15-4.9,2.15-2.54,0-4.27-1.98-4.27-4.86,0-4.33,3.02-6.85,8.21-6.85.53,0,1.21.05,1.9.14.14-.59.18-.84.18-1.16,0-1.18-.81-1.61-3-1.61-2.29-.03-4.17.54-4.95.8.05-.29.65-4,.65-4,2.33-.68,3.87-.94,5.6-.94,4.02,0,6.14,1.8,6.14,5.21,0,.91-.14,2.04-.38,3.52-.41,2.57-1.28,8.09-1.4,9.44Z"/>
            <path class="cls-5" d="M86.55,91.07c-1.28.4-2.28.58-3.36.58-2.39,0-3.7-1.37-3.7-3.9-.03-.79.34-2.85.64-4.74.27-1.66,2.03-12.13,2.03-12.13h4.65l-.54,2.69h2.39l-.63,4.27h-2.39c-.54,3.38-1.31,7.59-1.32,8.15,0,.92.49,1.32,1.6,1.32.53,0,.95-.05,1.26-.17l-.62,3.93Z"/>
            <path class="cls-5" d="M100.81,90.93c-1.6.49-3.14.72-4.77.72-5.21,0-7.92-2.72-7.92-7.93,0-6.08,3.45-10.55,8.13-10.55,3.84,0,6.28,2.5,6.28,6.43,0,1.3-.17,2.57-.57,4.37h-9.26c-.31,2.58,1.34,3.65,4.04,3.65,1.66,0,3.17-.34,4.84-1.12l-.77,4.42ZM98.2,80.39c.03-.37.49-3.17-2.16-3.17-1.48,0-2.54,1.13-2.97,3.17h5.13Z"/>
            <path class="cls-5" d="M68.57,79.18c0,2.25,1.09,3.8,3.56,4.96,1.89.89,2.19,1.15,2.19,1.96,0,1.11-.83,1.61-2.69,1.61-1.4,0-2.69-.22-4.19-.7,0,0-.61,3.92-.64,4.1,1.06.23,2.01.45,4.87.53,4.94,0,7.21-1.88,7.21-5.94,0-2.44-.95-3.87-3.3-4.95-1.96-.9-2.19-1.1-2.19-1.93,0-.96.78-1.46,2.29-1.46.92,0,2.17.1,3.36.27l.67-4.12c-1.21-.19-3.05-.35-4.12-.35-5.23,0-7.04,2.73-7.03,6.02Z"/>
            <path class="cls-5" d="M164.2,91.34h-4.42l.22-1.65c-1.28,1.37-2.6,1.96-4.31,1.96-3.4,0-5.65-2.93-5.65-7.37,0-5.91,3.49-10.89,7.61-10.89,1.81,0,3.19.74,4.47,2.42l1.04-6.32h4.61l-3.56,21.85ZM157.3,87.23c2.18,0,3.71-2.47,3.71-5.99,0-2.26-.87-3.48-2.48-3.48-2.12,0-3.63,2.48-3.63,5.97,0,2.33.81,3.5,2.4,3.5Z"/>
            <path class="cls-5" d="M143.66,73.57c-.59,5.5-1.62,11.07-2.44,16.57l-.21,1.2h4.68c1.67-10.87,2.08-12.99,4.7-12.72.42-2.22,1.2-4.17,1.78-5.15-1.96-.41-3.05.7-4.49,2.8.11-.91.32-1.79.28-2.7h-4.3Z"/>
            <path class="cls-5" d="M105.16,73.57c-.59,5.5-1.63,11.07-2.44,16.57l-.21,1.2h4.68c1.67-10.87,2.08-12.99,4.7-12.72.42-2.22,1.2-4.17,1.78-5.15-1.96-.41-3.05.7-4.48,2.8.11-.91.32-1.79.28-2.7h-4.29Z"/>
            <path class="cls-5" d="M166.26,89.95c0-.77.62-1.39,1.39-1.39s1.39.62,1.39,1.39-.62,1.39-1.39,1.39-1.39-.62-1.39-1.39ZM167.65,91c.59,0,1.06-.47,1.06-1.06s-.47-1.06-1.06-1.06-1.06.47-1.06,1.06.47,1.06,1.06,1.06ZM167.46,90.55h-.29v-1.22h.52c.11,0,.22,0,.31.06.1.07.16.18.16.3,0,.14-.08.27-.21.32l.22.54h-.32l-.19-.48h-.21v.48ZM167.46,89.86h.16c.06,0,.12,0,.17-.02.05-.03.07-.09.07-.14,0-.05-.03-.1-.07-.13-.05-.03-.13-.02-.18-.02h-.15v.31Z"/>
          </g>
        </g>
      </g>
    </g>
  </g>
</svg>