<?xml version="1.0" encoding="UTF-8"?>
<svg id="Layer_2" data-name="Layer 2" xmlns="http://www.w3.org/2000/svg" viewBox="0 0 200 160">
  <defs>
    <style>
      .cls-1 {
        fill: #050606;
      }

      .cls-1, .cls-2 {
        stroke-width: 0px;
      }

      .cls-2 {
        fill: #6cc38f;
      }
    </style>
  </defs>
  <g id="Layer_1-2" data-name="Layer 1">
    <g>
      <rect class="cls-1" width="200" height="160"/>
      <g>
        <path class="cls-2" d="M59.75,66.3c-3.32,0-6.5,1.3-8.88,3.61l1.29,2.44-.53.42c-1.11-1.93-2.71-3.54-4.64-4.67-1.92-1.13-4.11-1.74-6.34-1.76-7,0-12.66,6.12-12.66,13.3v15.44c0,.13.02.26.06.39.05.12.12.23.21.33.09.09.2.17.33.21.12.05.25.07.39.06h5.07c.12,0,.25-.02.36-.07.11-.05.22-.12.31-.2.09-.09.16-.19.2-.31.05-.11.07-.24.07-.36v-15.66c0-3.56,2.16-6.43,5.84-6.43,3.43,0,5.89,2.57,5.89,6.37v12.86c0,.13,0,.26.05.38.04.12.11.23.2.33.09.09.19.17.31.22.12.05.24.08.37.08h4.8c.13,0,.25-.03.37-.08.12-.05.22-.13.31-.22.09-.09.15-.2.2-.33.04-.12.06-.25.05-.38v-12.86c-.06-.82.06-1.65.33-2.42.28-.78.71-1.48,1.28-2.08.57-.6,1.25-1.07,2.01-1.39.76-.32,1.58-.48,2.4-.47,3.67,0,5.71,2.92,5.71,6.43v15.63c.01.25.12.5.3.67.19.18.43.27.69.27h5.02c.13,0,.26-.01.39-.06.12-.05.24-.12.33-.21.09-.09.17-.21.21-.33.05-.12.07-.26.06-.39v-15.44c0-7.2-5.42-13.33-12.36-13.33Z"/>
        <path class="cls-2" d="M105.2,66.88h-4.61c-.13,0-.26,0-.38.05-.12.04-.23.11-.32.2-.09.09-.17.19-.22.31s-.07.25-.07.37v.63l1.63,2.57-.45.44c-1.35-1.59-3.02-2.87-4.91-3.76-1.89-.89-3.94-1.36-6.03-1.39-3.89.18-7.55,1.85-10.24,4.67s-4.19,6.55-4.21,10.44c-.01,3.89,1.47,7.64,4.14,10.46,2.67,2.83,6.33,4.52,10.21,4.73,2.09-.02,4.16-.49,6.06-1.38,1.9-.89,3.58-2.17,4.94-3.76l.39.31-1.63,2.68v.59c0,.13.02.26.07.38.05.12.12.23.21.32.09.09.2.17.32.21.12.05.25.07.38.07h4.7c.13,0,.26-.01.39-.06.12-.05.24-.12.33-.21.09-.09.17-.21.21-.33.05-.12.07-.26.06-.39v-27.22c0-.13-.02-.26-.06-.38-.05-.12-.12-.23-.22-.32-.09-.09-.21-.16-.33-.2-.12-.04-.25-.06-.38-.04ZM89.76,90.1c-2.29,0-4.48-.91-6.1-2.53-1.62-1.62-2.53-3.81-2.53-6.1s.91-4.48,2.53-6.1c1.62-1.62,3.81-2.53,6.1-2.53s4.48.91,6.1,2.53c1.62,1.62,2.53,3.81,2.53,6.1s-.91,4.48-2.53,6.1c-1.62,1.62-3.81,2.53-6.1,2.53Z"/>
        <path class="cls-2" d="M171.01,66.88h-4.6c-.13,0-.26,0-.38.05-.12.04-.23.11-.32.2-.09.09-.17.19-.22.31-.05.12-.07.25-.07.37v.63l1.63,2.57-.45.44c-1.35-1.59-3.02-2.87-4.91-3.76-1.89-.89-3.94-1.36-6.03-1.39-4.02,0-7.88,1.6-10.72,4.44-2.84,2.84-4.44,6.7-4.44,10.72s1.6,7.88,4.44,10.72c2.84,2.84,6.7,4.44,10.72,4.44,2.09-.02,4.16-.49,6.06-1.38,1.9-.89,3.58-2.17,4.94-3.76l.39.31-1.63,2.68v.59c0,.13.02.26.07.38.05.12.12.23.21.32.09.09.2.17.32.21.12.05.25.07.38.07h4.6c.13,0,.26-.01.39-.06.12-.05.24-.12.33-.21.09-.09.17-.21.21-.33.05-.12.07-.26.06-.39v-27.26c0-.13-.02-.26-.06-.38-.05-.12-.12-.23-.22-.32-.09-.09-.21-.16-.33-.2-.12-.04-.25-.06-.38-.04ZM155.66,90.1c-2.29,0-4.49-.91-6.1-2.53s-2.53-3.81-2.53-6.1.91-4.48,2.53-6.1c1.62-1.62,3.81-2.53,6.1-2.53s4.48.91,6.1,2.53c1.62,1.62,2.53,3.81,2.53,6.1s-.91,4.48-2.53,6.1c-1.62,1.62-3.81,2.53-6.1,2.53Z"/>
        <path class="cls-2" d="M136.71,66.88h-4.72c-.76,0-1.17.41-1.17.81v14.24c.07,1-.08,1.99-.43,2.93-.35.94-.89,1.79-1.59,2.5-.7.71-1.54,1.27-2.47,1.63s-1.93.52-2.92.47c-4.14,0-6.82-3.09-6.82-7.53v-14.24c0-.4-.64-.81-1.05-.81h-5.15c-.21.02-.41.11-.55.26-.15.15-.24.34-.26.55v14.15c-.04,3.7,1.38,7.26,3.96,9.91,2.58,2.65,6.1,4.17,9.8,4.24,3.53,0,6.95-1.29,9.6-3.63l.27.24-2.1,2.86v1.14c0,2.92-4.39,4.55-6.95,4.55h-1.63c-.13,0-.26,0-.39.05-.12.04-.24.11-.34.2s-.18.19-.23.31c-.06.12-.09.25-.1.38v4.66c.02.26.14.5.34.68.2.17.45.27.71.26h1.63c7.82,0,13.53-4.55,13.53-13.13v-26.87c-.03-.23-.15-.45-.34-.6-.18-.15-.42-.23-.65-.21Z"/>
      </g>
    </g>
  </g>
</svg>