<?xml version="1.0" encoding="UTF-8"?>
<svg id="Layer_2" data-name="Layer 2" xmlns="http://www.w3.org/2000/svg" viewBox="0 0 200 160">
  <defs>
    <style>
      .cls-1 {
        fill: none;
      }

      .cls-1, .cls-2, .cls-3 {
        stroke-width: 0px;
      }

      .cls-2 {
        fill: #faa634;
      }

      .cls-3 {
        fill: #0066b3;
      }
    </style>
  </defs>
  <g id="Layer_1-2" data-name="Layer 1">
    <g>
      <rect class="cls-1" width="200" height="160"/>
      <g>
        <polygon class="cls-3" points="90.42 102.58 78.67 102.58 86.02 57.45 97.77 57.45 90.42 102.58"/>
        <path class="cls-3" d="M68.79,57.45l-11.2,31.04-1.33-6.68h0s-3.95-20.29-3.95-20.29c0,0-.48-4.06-5.57-4.06h-18.52l-.22.76s5.66,1.18,12.29,5.16l10.21,39.21h12.24l18.69-45.13h-12.65Z"/>
        <path class="cls-3" d="M161.21,102.58h10.79l-9.41-45.13h-9.45c-4.36,0-5.42,3.36-5.42,3.36l-17.52,41.77h12.25l2.45-6.7h14.94l1.38,6.7ZM148.28,86.62l6.17-16.89,3.47,16.89h-9.65Z"/>
        <path class="cls-3" d="M131.12,68.3l1.68-9.69s-5.17-1.97-10.57-1.97c-5.83,0-19.68,2.55-19.68,14.94,0,11.66,16.25,11.81,16.25,17.93s-14.58,5.03-19.39,1.17l-1.75,10.13s5.25,2.55,13.26,2.55,20.12-4.15,20.12-15.45-16.4-12.83-16.4-17.93,11.44-4.45,16.47-1.68Z"/>
      </g>
      <path class="cls-2" d="M56.26,81.81l-3.95-20.29s-.48-4.06-5.57-4.06h-18.52l-.22.76s8.9,1.85,17.44,8.76c8.16,6.61,10.82,14.84,10.82,14.84Z"/>
    </g>
  </g>
</svg>